/* XPM */
static char *_1a65b6fa76e4b2dc7b13f497d945ce7bT759Tlh9YsTRau7[] = {
/* columns rows colors chars-per-pixel */
"64 64 256 2 ",
"   c #334E5A",
".  c #385B68",
"X  c #3C6B79",
"o  c #42565F",
"O  c #425E6E",
"+  c #4A6774",
"@  c #566A76",
"#  c #59717C",
"$  c #4C666E",
"%  c #67787B",
"&  c #6B757A",
"*  c #70827D",
"=  c #3F7082",
"-  c #1A7A8C",
";  c #4A7C8A",
":  c #587885",
">  c #5B7789",
",  c #677B87",
"<  c #737A89",
"1  c #29889A",
"2  c #368D9B",
"3  c #278DA3",
"4  c #2C95A9",
"5  c #3395AB",
"6  c #3B9AAE",
"7  c #3595A7",
"8  c #2A9BB3",
"9  c #339BB2",
"0  c #3A9EB4",
"q  c #3898B8",
"w  c #328EA3",
"e  c #33A2B5",
"r  c #3CA3B4",
"t  c #33A3BB",
"y  c #3BA4BA",
"u  c #3EA9BD",
"i  c #34ABB5",
"p  c #34A5B2",
"a  c #1A8E99",
"s  c #588797",
"d  c #4D8792",
"f  c #6A848C",
"g  c #75858A",
"h  c #6A8996",
"j  c #738594",
"k  c #758B94",
"l  c #798B98",
"z  c #7C919D",
"x  c #789399",
"c  c #6B979D",
"v  c #4598A9",
"b  c #5A96A5",
"n  c #459DB3",
"m  c #5696AA",
"M  c #6899A4",
"N  c #7999A5",
"B  c #729AB2",
"V  c #49A5AD",
"C  c #43A3B5",
"Z  c #43A5BB",
"A  c #45ABBD",
"S  c #4BABBD",
"D  c #4AA5B8",
"F  c #57ABBA",
"G  c #59B5BC",
"H  c #4DACB2",
"J  c #7BA1AB",
"K  c #67A8B6",
"L  c #78A9B7",
"P  c #67B2BE",
"I  c #7AB3BD",
"U  c #6CA8AD",
"Y  c #3BA9C3",
"T  c #3AAFC9",
"R  c #44ACC3",
"E  c #4BADC3",
"W  c #47ABC6",
"Q  c #52ADC3",
"!  c #58ADC6",
"~  c #45B3C6",
"^  c #4CB2C5",
"/  c #45B3CB",
"(  c #4CB4CB",
")  c #4CBACD",
"_  c #46BACA",
"`  c #53B2C5",
"'  c #5BB3C5",
"]  c #53B5CB",
"[  c #5BB5CB",
"{  c #53BACD",
"}  c #5BBACD",
"|  c #5ABAC4",
" . c #4DBCD3",
".. c #4DBDDA",
"X. c #48B7D2",
"o. c #54BCD3",
"O. c #5BBDD3",
"+. c #54BDD9",
"@. c #5AB8D5",
"#. c #63B5CB",
"$. c #63BBCD",
"%. c #6BBACC",
"&. c #66B6C5",
"*. c #77B8C7",
"=. c #62BDD3",
"-. c #66BBD6",
";. c #79BCD2",
":. c #68ADC6",
">. c #5ABDE1",
",. c #68BEE2",
"<. c #459AC3",
"1. c #57C2CC",
"2. c #4BC4D6",
"3. c #55C1D5",
"4. c #5CC2D5",
"5. c #54C2DB",
"6. c #5CC3DA",
"7. c #5CC9DD",
"8. c #58CADA",
"9. c #45C4CD",
"0. c #65C1CE",
"q. c #79C1CB",
"w. c #63C2D4",
"e. c #6BC3D5",
"r. c #63C4DB",
"t. c #6AC5DB",
"y. c #64CADD",
"u. c #6BCBDD",
"i. c #63C8D6",
"p. c #7CC3D4",
"a. c #73CADD",
"s. c #76C6D8",
"d. c #73D2DE",
"f. c #5BC6E2",
"g. c #5DCBE2",
"h. c #56C7E3",
"j. c #5ED0E8",
"k. c #63C4E2",
"l. c #64CAE2",
"z. c #6CCCE2",
"x. c #6AC5E3",
"c. c #73CDE3",
"v. c #75CBE7",
"b. c #6DD2E4",
"n. c #6CD3E9",
"m. c #64D0E5",
"M. c #73D2E5",
"N. c #7AD4E5",
"B. c #75D5EA",
"V. c #7BD4EB",
"C. c #75D9EC",
"Z. c #7CDAEC",
"A. c #7BD8E7",
"S. c #7CDCF1",
"D. c #76DAF1",
"F. c #7DE1F5",
"G. c #7BE4F5",
"H. c #7DE3EF",
"J. c #848C98",
"K. c #83939B",
"L. c #889898",
"P. c #8C9896",
"I. c #8BA29D",
"U. c #8B9CA4",
"Y. c #8A9CAA",
"T. c #8597A6",
"R. c #939CA7",
"E. c #8B9AAE",
"W. c #A39BAB",
"Q. c #8DA1AD",
"!. c #88A3AA",
"~. c #96A6AA",
"^. c #88A9B7",
"/. c #94AAB4",
"(. c #98A7B6",
"). c #87B2BE",
"_. c #97B3BA",
"`. c #99B0AA",
"'. c #A7ABB6",
"]. c #A3B2BA",
"[. c #AAB7B8",
"{. c #B2B5B3",
"}. c #B5BCBA",
"|. c #BABCBC",
" X c #B7B9B5",
".X c #ACAFAD",
"XX c #AAA69E",
"oX c #C2B7B9",
"OX c #B9C4BB",
"+X c #BFD2BE",
"@X c #97C1BF",
"#X c #C1C2BE",
"$X c #87B8C7",
"%X c #97B9C6",
"&X c #91B0C9",
"*X c #A7B9C6",
"=X c #B5BCC5",
"-X c #A5B4CB",
";X c #C9BAC5",
":X c #85C4CA",
">X c #83C5D4",
",X c #87C9D8",
"<X c #99C7D7",
"1X c #99D4DE",
"2X c #94C5CD",
"3X c #A9C4CD",
"4X c #B8C4C8",
"5X c #A9CAD8",
"6X c #B7CBD6",
"7X c #A8D8DB",
"8X c #B6D4DA",
"9X c #91CBE3",
"0X c #82DCED",
"qX c #88D7E8",
"wX c #96D7E6",
"eX c #83DDF2",
"rX c #89DCF6",
"tX c #8BD1E6",
"yX c #A8D7EA",
"uX c #B9D9E5",
"iX c #ADCFE4",
"pX c #84E2F5",
"aX c #8BE4F5",
"sX c #84E4FA",
"dX c #8BE5FB",
"fX c #84EBFC",
"gX c #8CEBFE",
"hX c #88EAF7",
"jX c #93ECFE",
"kX c #96E6F9",
"lX c #8DF3FF",
"zX c #8CF6FF",
"xX c #93F2FF",
"cX c #9AF4FF",
"vX c #9CFBFF",
"bX c #96F9FF",
"nX c #92E1EC",
"mX c #A7EBF8",
"MX c #B5E6F7",
"NX c #A2FCFF",
"BX c #A7F9FF",
"VX c #B4F9FE",
"CX c #B9E5E9",
"ZX c #CCCCCB",
"AX c #C7C7C6",
"SX c #D3C8CA",
"DX c #C8D6CA",
"FX c #C8CCD4",
"GX c #C9D6D6",
"HX c #D5D5D8",
"JX c #D5CFD1",
"KX c #C5D9E6",
"LX c #CFDCEA",
"PX c #CCF6FF",
"IX c #D9F6FE",
"UX c #CFE9F3",
/* pixels */
"9 u 3.m.n.r 4.S ` sX] 6 O.4.6.@.v.rX,.,.-.] l.R 5 5 3 6.fX1 4.4.6.o.o.y 3 5 Z E A w.V.eXu.pXO.6.>.>.+.r.} | 0X` C M.M.` $.' %.p.",
"R ) g.m.m.r ] r E F.[ 3 9 E 9 W gXv.-.@.@.r.o.o.4 5 y n.bX^ 4 Z R R u r y y R O.] Z ] NXgXz.6.6.+.+.f.O.} S 0XD C r.S.S.pXZ.rXN.",
"7.e ~ l.n.5 r i.0 ` u.O.r.^ 9 l.6.9 W o.o.3.y y R ] r.gXNXNX! 1 5 R  .5.g. .R ~ O.A z.gXO.A o. .g... .u r 7 hXi.M.B.S.D.C.B.jXeX",
"u 4 R { C.z.4.w.w.B.bX4.] O.n.D.R 8 8 t 8 8 ~ ~ { O.c.cXeXBXkXv R 5.6.5.5.3.3.o.9 Z xXc.E o./ u t Y T ~ A S NXgXz.r.k.k.6.W ] E ",
"E 0 E Z r.gXeXz.S.B.dXM.E w.sXy.5.2._ 8 a e 3.7.o.] Z.jX-.#.kXrX6...) 2.)  .m.o.6.r.pXZ A O.(  .8 T _ ) ^ M.vXA.] O.o.+.f.q 9 0 ",
"O.O.B.O.S w.B.Z.w.Z ] vXS.dXB.O.3.2.7.i t 7. .3.o.i.lXw.$.' s.cXfXm./ 7.7.{ 6.^ =.cXrX' -.Q ] Z ~ j.3.A ` cXaX' =.l.+.) f.Y / g.",
"] S.NXZ.C =.M.` } } u.B.B.bXz.] o.o.~ 9 / 7.o.3.{ G.fXC } w.[ ] xXbXw.[ 4.` =.e.-.VXtX! #.F a.=.6 S } H s.VX,X:.#.O.+.+.f.Y / 5.",
"vXpXpXV.S =.M.[ w.} S.S M.B.] 4.o.l.9 E l.] 4.3.6.zXG.4.4.{ 4.1 F NXN.F e.$.%.p.wXmX9X;.,X;.*.&.P m P b :XwX:.tX;.$.-.f.+.Y  .2.",
"cX} } M.jXxXdX` } t.u.w sXt.} O.O.E W O.r.O.o.r.fXbXB.{ 4.4.^ 7 2 *.VX,X,X;.*.b X s ; s s ; d ; ; ; X + . . ; M >X#.=.{ 5.8 _ 8.",
"gX[ w.M.} w.cXt.[ w.Z.O.B.] } w.] R ( 6.O.] w.eXNXNXdX=.[ #.n v b L <XI s d M ^.%X%X&X%X).N N h : . # O $ : s M ,Xp.=.O.o.e t i ",
"eXQ [ w.Q 7 O.gXE ] dXvXjX=.t.} A ( O.O.} e.aXVXs.tXkX;.;.9X:.B J h c ^.%XuXuX8X_.T.j l , $ O     @ , , % k ^.$X*.%.#.w.Z 3 5 ~ ",
"0Xe.t.S ` } E B.gXC.sXjX0X` [ D C } w.' #.s.wXwX*.$XMXMX$Xs = > ^.6XUXKX6X%XY.z l T.Y.K.@ o @ , f R.$ @ g /._.).*.;.e.B.` 3 9 4.",
"bX} C ^ { r.O.^ lXS.M.} M.D n 2 G q.>X>X,XwXyX1X$X<X&X: O N iXKXKXuX*X, N z z T.U.R.(.R.l z Y./.U.~.R.L.]._.: b 9Xs.c.eXgXB.C.B.",
"bXu.- S b.^ ] { O.O.O.C 0Xw.D G ,X$XI L B M N N 3Xh $ T.uXKX6X*X(.(.Q., Y.j z (.*X'.R.J.T.Q.N K.Y.f , , 3XN M :X*.%.' } V.dXjXM.",
"i.vX} r O.4.^ 4.6.4.O.n M.M.F tX).!.z l l T.Q./.@ K.4XKX6X/.k K.Y.j Y.Y.(.Y.(.*X(.*X(.j , # O f o + : N ^.d $X1X%.-.Q Q E [ } ! ",
"A hXvX] w ^ 4 ] 4.o.O.` V.eXF wX_.]./.K.T.(.K.% ].=X*Xg k (.U.].'.l Q.*X*X6X6X3X6X=X~.l U.j $ f N h J 2Xc :X*.P eXpXz.xXV.z.} t.",
"~ fXM.jXD D S 0 f.X.g.~ S BX,X$X%X%XT.Q.z z Y./._./.z U.].~.R.=X;X;XFX4X6XFX4X4X4X}.4XP.'.=XU.Y.^.%X2X$XI &.$.} ] R n.n.] z.S.w.",
"u C.sXs.cX-.O.0 / h...Y 2 p.VX5X%X/.h l j Y.Q.Q.T.l g R.=X=X=XFXSXJXHX4XFXGXZXZXDX}.ZX.XW.'.=X_.%X2X:X*.%.e.} E R _ g.+.y R 6.F.",
"~ 4.M.a.qXV.M.E t T 5.5 7 d MX%X%XT.j l z Y.z T./.*X4X4XFXFXHXJXAXZXHXGXHXHXAXZXGXZXAXAX{.R./.J L *.K v v 6 6 Z 3.g.7.5.6.( E S.",
"R O.[ aX[ 0XsXD.Y 4 8 A D I L _.%XN l j j l k (.].].4XGXAXAXHXHXAX#XDXHXHXJXoXZXAX[.{.JXHX=X%XI *.p.&.F n 5 6 o.5.o.( ( l.] 5 ] ",
"5 O.=.gXaXV.F.zXfX/ A ` p.$X+ f j , l l z U.U.].4XP.~.JXHX;XAXJXDXDXDXAXSXSX;XZX4XI.|.HXAXGXyXq.%.#.[ } ` 4 3 e / R ~ R R 0 6 } ",
"5 Z t.sXeXw.z.b.zXD.sX$.,X;     # , l k ~.=X=X'.FX}.|.ZXZXAXAXAXDXDXDX XoX;XoX|.`.[.FXAX'.5X:XG w.O.w.r.( 9 t / .. .5.o.E S ` z.",
"E w M.Z.] { { ( ( M.N.tXb .   @ j j f < ~.[.GXZX|.#XZXAXoXAXSXAX+X+XAX XoXoX.X[.`.GX=X'.=X8X:X1.} o.6.o.t t ..h.h.5.6.6.6.O.[ N.",
"Q 6 bXO.r.4.~ y.w.' ;.*.X . $ j , , f R.=X'.FXZXZX X XZXJXAXAXJXDXOX{. X|..X'.6XUXuXL.'.].5XnXG 4.+.5.X.t X.j.X.+.5.+.o.r.O.} jX",
"Q xXeX9 ( 4.6.} =.&.,X; + : , j < g ~.4XFX4X|.#XoX|.AX#X XZXJX|.+XOX.X.X=X=XuXPXCX7X_.J.-XuX,XG o.5.h.Y T j. .5.X.l.O.] z.[ V.jX",
"0XZ.} ] u o.4.} ' p.U s + # j : k U.'.4X4X}.|.AXOX#XZXAX X|.AXOX}.4XAX4XFXIXPX1Xd U 2XN Q.iX>X&.o...5.t T f.5.f.6.o.o.w.O.` aXVX",
"a.e.C E R R R e.&.<Xs c # f l # U.`.=X4X}.{. X#X#X X{.}.4X4X4X4X4XGXUXIXUXPXwXv V H :X&XT.5XL G y.5.g.t / 3.o.3.6.O.4.x.[ V.NXcX",
"c.M.O.~ m.) A v >XI h h , T.> , ~.'.[.}.|.OX|.{.{.|.}.[.].].3XKXIXIXuXMXPX9Xm ' | | q.yXB iXK G } / o.e o.O.6.O.r.O.] =.w.vXNXB.",
"N.t.4.R y R z.F >Xh h , g z + f ~.`.[.}.|.AX X.X{.4X=X[.3XuXUXIXUX$X1XmXs.:.t.w.{ i.%.kX$XyX;.2 t.{ } C w.O.w.} ' } } S.xXNXB.=.",
"0XpXy.y.5.D.jXVX$Xh l % ~.f : k L.`.}.}.|. X{..X{.[.=X6XLXPXMX<XI wXrXa.t.O.] o.8.4.w.qXp.,XwX%.F C n 7 ' ' =.=.[ Z.pXdXvXgX[ @.",
"a.sX4.n.zXfX-.>X$Xl K.& ].j h k L.~.{.}.{.{.{.}.}.4XLXLX5X%X$XU >XcXhX5. .f.k.+.X.) y.pX&.&.aXVXjXaXA.d.qXa.s.e.eXdXeX-.V.V.O.x.",
"#.c.C.y.7.A %.9XL , T.@ (.k f f L.I..X{.{.{.}.4XUXKXUXUX1X>XwXnX%.w.y.5.X.h.k.o.6.6.O.sX=.jXe.0.Z.pXpXcXNXcXcXNXeX#.[ =.pXB.] O.",
"! NXr.4 w.N.>XyXJ T.l , ~.K.J.g L.`.XXoXoXZXDXGX4XuXCXMXp.| H r 6 z.o.5.o.o.6.6.O.O.O.xXvX` 5 ^ R u R { r.w.=.pXN.' =.r.sXO.6.O.",
"qXD r.fXH.aXyXyX^.E.N , @ k J.~.L.`.{.XX#XGXOXL.Q.IXMXVXs.r A a A D.4.4.6.4.4.O.O.] z.vXS.5 9 3.m.e R 7.6.O.O.=.S.} } B.D.6.o.o.",
"c.n b.G.i.0.;.yX^.T.f : $ % P.'.'.`.}.4XGX4XI.T.3XuXB ;.aXaXpXr } pXO.^ { o.{ O.t.! V.NXt.9 ( o.Y Y ..3.4.O.] t.gXw.] pXr.6.] 5.",
"z.r.3.A { 0.P <X&XT.> $ # o U.'.=X3X5X7X@X8XK.Q.iX$Xm n #.t.-.V.w.gXz.4.4.r.O.r.=.-.jXcXw.] l.( e t R ( y.O.] Z.eXO.} F.O.4.3.6.",
"o.o.) 3.1.&.q.1X%X!.z   : $ U.3X5X,X>X,X).3XN $XmXF r 4 @.x.n ,.aXNXhXu.} { ] =.@.V.NXcXw.o.l.6.) 3 u y.o.^ z.xXu.} z.D.6.4.6.o.",
"Y ( 3.m.1.F >XyX5X!.Y.  , *X_.5X>X' s.>X1X).^.1XH p i 8 Y q <.,.} dXxXgXS.Z.w.=.x.v.jXdXr.{ o.6.( e u ( 4.B.sXvXsXM.C.l.O.{ 6.{ ",
"X.5. .) w.0.P <XiX^.!.# # 3X*X<XF i.nX*.<X%X<X:XH 1.2. .( q +.k.O.u.M.M.z.xXbXvXv.-.eXeX-.@.o.o./ ~ y A D.lXC.S.bXF.b.O.o.{ 6.3.",
"T t 3.o.S v d $XuX%XQ.j   @ *X<X%.s.>X).*X_.).M *.&.0.w.r.W +.o.} e.N.Z.z.S.w.D =.[ dXrX! O.l.o.~ A C.lXz.Z S b.sXz.o.O.6.6.3.3.",
"/  .+.E 7 n P L 7X5X/.Y.< @ : &X<X<X-X*X_.~.!.%X%X%X%X9X;.] ) 8.} w.=.Z.NX] 1 [ t.[ dXv.} @.O.6.A O.S.M.A 6 y.o.0 R ( ( ) 5.o.Y ",
"5.( ( ] ! %.;.*.).uX-XT.J.< @ l E.E.J.J.U.L.!./.'.(.&X&Xs.r._ e E ` S ` pXB.O.[ ' -.rXv.[ O.] l.Z 4.z.w { pXO.0 0 0 5 4 4 9 9 5 ",
"5.W W O.e.%.&.F b yX6X(.E.T., f U.l < g L.I.L.~.W.-X&XL ` _ u 4 r 6 Z R r.B.gXxXZ.Q t.jX-.z.O.] u.] 0 } xXM.] O.o.( ^ ^ ~ Y y e ",
" .W E [ ' D n V K 2XKXuX(.Q.Q.k R.J.g L.~.`.~.U.'.-X,X' i i e 4 r.O.z.r.] y O.M.cXv.jXVXV.M.S.fXu.w 7 Z.sXE 6.O.5.5.6.l.g.6.) Y ",
") / E E A A ` } %.*.5XKX-X(.Y.x x * * L.~.`._.^.%X$Xw.1.9._ u 7 y W o.o.6.^ ] O.O.dXdX#.a.u.b.xXM.1 } Z.z.O.O.{ o.6.+. ...6.o.R ",
"~ ) ] ( o.4.3.4.$.:.$X-XLX=X/.`.g % * x !./.%X$Xp.=.) 2.8.5.o.] ( W R ~ y.u A l.] jXjX=.eXZ.b.M.Z.} N.xXsXo.] y.O.6.5. . .6.o.u ",
"_ 3.o.O.l.7. .) 4.s.$X^.6X4X_.`.g * g L.Q./.$X;.O.3.+.+.@.@.r.l.l.X./ (  .4 y z.=.jXNXdXc.w.w.| S A.0XpXF.] 6.o.o.O.5.5.5.5.~ 9 ",
"3.8.o.o.5.5. .8.o.-.*.> , g k @ g & J.~./.).*.$.) 3.6.-.-.-.@.o.5.+.f.( Y 9 0 w t.NXaX$.` i.S 4 1 6 u.u.B.t.o.6.O.O.o.5.5.o.R e ",
"r.( 5.o.7.o.5.5.{ w.s.b > , @ % % g J.Y.%X1XA.d.M.=.#.-.Q O.6.o.) l.6.3.6.E y ` gXjXQ O.O.E R R 5 E r.z.lXgXO.w.} { 4.l.] 5 4 0 ",
"S.O.O.] 3. .o. .7.4.%.P ; f % & % , U.*X$XP ` 8.u.0XkXtXN.} o.k.6.o.~ 4.z.^ Z w.bXC.5 5 5 9 ( 5.5 ( O.O.F.vXsXA.w.u.} 6 5 ^ ] y ",
"jXM.O.] r.7.7.4.6.] ' >X; f L.J.L.K.T._.K $.4.7.} gXVXBXcXgXZ.o.O.r.O.{ O.O.B.NXNX} 5 y o.6.6.W 9 5.4.( 6.C.C.4.r.b.r.^ ( O.] 0 ",
"NXgXc.=.4.^ ( ( ] $.a.mXJ f L.P.L.K.!.5XwXcXlXG.S.S.aXeX' Z.bXgXr.r.o.O.y.b.M.Z.dXA { 4.4.o.5.( e 3.4.3.{ 4.M.u.} b.zXvXbXS.6.^ ",
"aXjX0XA.M.i.u.b.C.pXrXnX).f K.~.~.~.%XmXqXa.O.4.6.E y.bXt.' t.dXNXxXfXxXgXb.u.S.z.6 O.6.O.o.+. .y 3.3.3.{ { b.b.b.Z.M.{ { n.fXzX",
"a.Z.$.Z.cXbXlXsXS.Z.e.*.I c x ~.R.~.I P #.[ O.k.+.( 4.b.dX[ $.jXsXsXsXZ.O.^ u.bXz.9 Z R o.6.5.+.y 3.3.3.4.4.1.{ r.i.] r Z 5.n.m.",
"e.V.' N.dXpXz.4.^ [ ' &.$X$Xc x ~.*X:XV 0.r.r.] +.g.3.~ dXaXeXjX} } } } } r.A.eXO.] R r 9 y / l.9 W ) { r.O.] u.hXw.A E O.o.] o.",
"' gXZ.sXz.] ^ 4.6.6.} $.K >XU J ~._.q.V r.{ @.,...h.X.3.u.jXjXcXS.w.} w.} } M.xX` u.O.6.o.^ 9 W y 9 r r Z w 7 pXsX} Z ` w.O.o.O.",
"[ M.sXu.` 4.5.o.5.6.o.O.#.*.>XL /.3XK V 4.+.@.k.+...2.3.O.$.=.t.B.dXpXr.E w.c.gX=.4.O.r.o.5.Y 3 o.r.w.4.u.w.u.jXN.} n w.E r.S.S.",
"w.C.B.[ { r.o.+.5.5.+.6.O.$.p.I J 2XF w _ g.k.+.f.5.5.3.O.} } } ] z.sXpXw.} w.xXw.] } O.6.6.6.{ D.D.z.z.S.t.D n dXt.- Q dXdXt.-.",
"sXsXC.4.6.6.) f.h.....f.5.] w.%.$X2XF r _ X.+.h.....3.3.O.w.4.O.] O.C.xXB.O.Q M.gXu.=.` y.C.xXxXA ] O.B.gXpXa.a.0XN.D u.cXz.] =.",
"B.F.gXz.{ O.5.f.h.....h.5.{ } &.,XwXN.w.) Y T 5.5.5.5.o.O.6.5.o.r.] O.sXgXxXZ.0XcXpXsXgXNXvXlXC.6.n.C.B.z.=.} e.w.w.gXjXc.Q O.r.",
"] } pXM.` 4.l.o.+.5.....5.5.{ Q s.nXjXc.] X.X._ ( { ] ] o.5.6.f.6.] ( r.C.vXgXM.t.} c.NXxXu.0 4 6.5.o.{ O.{ } w.} ` xXz.A O.l.o.",
"M.' Z.cXN.} ] 5.+.5.5. .5.7.^ S $.s.rXV.6.5.2.X.~ ^ ! ] ( / X.5.5.6.k.o.( C.z.` i.' i.xXt.6 w } 3.o.{ { o.4.} } [ i.gXr 3 ( ] ] ",
"0XN.aXcXaXe.` r.+.+.5...5.3.r A 1.[ 0XrXx.5.2.2.7.=.=.[ R 8 8 Y / ( 6.6.] C.M.O.} 0.N.Z.S 1 v u.3.5.7.7.3.1.4.1.{ F.fXu 5 y R o.",
"V jXcX$.e.aXu.[ 6.o.5.5.5.~ 4 Z 1.u.mXrX@.5.2.2.3.[ #.$.W 8 8 Y t 8 Y o.o.S.M.} e.aXcXe.7 1 F } 3. .3.3.o.3.4.1.4.G.n.{ ) / 5.) "
};
