/* XPM */
static char *e500796c01394ab992f9a615f0e6a690RSuZlFQkZRU9vJdk[] = {
/* columns rows colors chars-per-pixel */
"64 64 252 2 ",
"   c #12141A",
".  c #1A232A",
"X  c #15323A",
"o  c #27252C",
"O  c #293338",
"+  c #35373B",
"@  c #292D36",
"#  c #141F23",
"$  c #393A43",
"%  c #2C3C43",
"&  c #3A4549",
"*  c #3A4C53",
"=  c #2C5E6B",
"-  c #48464A",
";  c #464C55",
":  c #485458",
">  c #56565B",
",  c #544750",
"<  c #4F5C64",
"1  c #645B64",
"2  c #5C6367",
"3  c #536B73",
"4  c #646868",
"5  c #676A72",
"6  c #766D78",
"7  c #677578",
"8  c #777679",
"9  c #746C6C",
"0  c #5E605D",
"q  c #85787C",
"w  c #5D817F",
"e  c #3C7A84",
"r  c #597A87",
"t  c #687A84",
"y  c #787B83",
"u  c #707D90",
"i  c #877C83",
"p  c #25899B",
"a  c #2F8E9A",
"s  c #2A96A9",
"d  c #3B9CAD",
"f  c #3696A9",
"g  c #379CB2",
"h  c #2D98AC",
"j  c #3BA2B5",
"k  c #3DA3BB",
"l  c #3CAABD",
"z  c #36A5B6",
"x  c #35A5B0",
"c  c #1F92A5",
"v  c #4C8D97",
"b  c #798489",
"n  c #708D95",
"m  c #469AA9",
"M  c #459CB3",
"N  c #559DAE",
"B  c #759BA6",
"V  c #6D9CAB",
"C  c #43A4B5",
"Z  c #44A5BB",
"A  c #44ABBC",
"S  c #4AABBD",
"D  c #49A5B9",
"F  c #57AAB9",
"G  c #47B2BC",
"H  c #57B3BB",
"J  c #4DA7AD",
"K  c #66A9B9",
"L  c #75AAB8",
"P  c #68B3B9",
"I  c #73ACB4",
"U  c #3DB0C2",
"Y  c #4BADC2",
"T  c #46ABC3",
"R  c #55ADC4",
"E  c #4CB3C5",
"W  c #4CB4CA",
"Q  c #4DBBCC",
"!  c #45B6C7",
"~  c #53B3C4",
"^  c #53B4CB",
"/  c #5BB4CB",
"(  c #54BBCC",
")  c #5BBBCD",
"_  c #5AB7C4",
"`  c #4EBCD2",
"'  c #43BAD0",
"]  c #54BCD2",
"[  c #5BBDD3",
"{  c #5AB9D7",
"}  c #56ACD3",
"|  c #64BBCD",
" . c #67B6C7",
".. c #76BAC8",
"X. c #62BDD3",
"o. c #68BCD6",
"O. c #75BCD3",
"+. c #67ADC2",
"@. c #65BAE3",
"#. c #54C2CD",
"$. c #5AC2CA",
"%. c #4DC4D5",
"&. c #54C2D5",
"*. c #5CC2D4",
"=. c #54C3D9",
"-. c #5CC4DA",
";. c #5CCADB",
":. c #59CAD6",
">. c #4CC0CF",
",. c #66C3CD",
"<. c #78C4CB",
"1. c #63C3D4",
"2. c #6BC3D5",
"3. c #63C5DA",
"4. c #6AC4DB",
"5. c #64CADC",
"6. c #6BCBDD",
"7. c #66CAD5",
"8. c #75C7DA",
"9. c #6BD0DD",
"0. c #68D8DE",
"q. c #7AD2DE",
"w. c #5CCAE2",
"e. c #64CCE1",
"r. c #6CCCE3",
"t. c #68C6E3",
"y. c #73CDE2",
"u. c #78CBE5",
"i. c #6DD3E3",
"p. c #6BD7E8",
"a. c #73D3E5",
"s. c #74D5EB",
"d. c #7BDBED",
"f. c #78D7E8",
"g. c #7CDBF2",
"h. c #77DBF1",
"j. c #7DE2F3",
"k. c #79E4F8",
"l. c #79E3EC",
"z. c #868289",
"x. c #95858B",
"c. c #898C95",
"v. c #8A949A",
"b. c #979699",
"n. c #9A8F91",
"m. c #A6999A",
"M. c #ADA19A",
"N. c #8A98A4",
"B. c #9A9BA6",
"V. c #9698B0",
"C. c #A89DA9",
"Z. c #AE9EB9",
"A. c #99A4AB",
"S. c #98A8B7",
"D. c #98B6B9",
"F. c #89ACB5",
"G. c #A9A7A9",
"H. c #B5AAAC",
"J. c #A7AAB8",
"K. c #B4ACB8",
"L. c #AAB5BA",
"P. c #B8B7BA",
"I. c #B9B3AC",
"U. c #9BA19F",
"Y. c #C5B9B9",
"T. c #C4B4B3",
"R. c #BAC3BE",
"E. c #CBC3BD",
"W. c #D3C5BD",
"Q. c #89BAC8",
"!. c #98B8C6",
"~. c #91B2CA",
"^. c #A7ADC5",
"/. c #A9B7C7",
"(. c #B6B8C7",
"). c #B7BAD3",
"_. c #B0B5CE",
"`. c #C4BBC5",
"'. c #CABCD2",
"]. c #99C4CB",
"[. c #87C6D5",
"{. c #97CADA",
"}. c #89D2DC",
"|. c #95D3DC",
" X c #89C1CC",
".X c #ABC6C9",
"XX c #B9C5C8",
"oX c #A9C9D7",
"OX c #B9C9D6",
"+X c #A6D4DB",
"@X c #B7D5DA",
"#X c #84D8EA",
"$X c #99D7E6",
"%X c #82DDF3",
"&X c #8ADDF6",
"*X c #8ED0E8",
"=X c #A8D6E5",
"-X c #B7D9E7",
";X c #B4D0EA",
":X c #84E3F4",
">X c #85E4FB",
",X c #8AE5FB",
"<X c #85EAFC",
"1X c #8BECFD",
"2X c #8BE4F3",
"3X c #94ECFE",
"4X c #99E7FA",
"5X c #8CF3FF",
"6X c #82F2FD",
"7X c #93F3FF",
"8X c #9CF4FF",
"9X c #9CFCFF",
"0X c #93FAFF",
"qX c #90E1EE",
"wX c #B8E4ED",
"eX c #A7EAF8",
"rX c #A3FDFF",
"tX c #ABFDFF",
"yX c #A4F4FF",
"uX c #B7F5FE",
"iX c #AEE5EF",
"pX c #CCCBCC",
"aX c #C6C5C8",
"sX c #D4C9C8",
"dX c #D6D3CB",
"fX c #C8CBD5",
"gX c #D5CCD4",
"hX c #C8D4D8",
"jX c #D8D6D8",
"kX c #E5D9D8",
"lX c #E1D3CC",
"zX c #E8E3DD",
"xX c #F0E6DC",
"cX c #C7D9E8",
"vX c #D6DBE4",
"bX c #C9CFED",
"nX c #E5DDE3",
"mX c #F2DFE1",
"MX c #C9E3EA",
"NX c #D7E4EA",
"BX c #C9E9F8",
"VX c #D5E8F4",
"CX c #C7F7FE",
"ZX c #D6F9FD",
"AX c #DDF1E6",
"SX c #E5E3E3",
"DX c #E9E6E8",
"FX c #F2E7E8",
"GX c #E8EBF4",
"HX c #E6F8FB",
"JX c #F7FBFB",
"KX c #F0EFEE",
/* pixels */
"9Xf.| M u.8.o.f.2.2X/ ) o.| o.o.o./ 1._ 2XrX$X....4Xq.C j ] Y >XrXtXf.f ) 7.( *.( 3.) X.) 3.( $.a.E d S s 7.5.( 3.] ;.l W ;.w.` ",
"1X1X) S / 2Xo.y.f f.:X3.X.X.| / ^ 1.y.R D 2XtXyX8XyX#XS p ^ s.7XrX8X2X~ ( *.*.*.*.[ [ 4.X.^ ) a.5Xa.d.j.6.6.i.[ [ ] -.T ] =.` =.",
"C d.2./ M %X8.d.) j.9Xj.1X1X:Xa.*.Q [ X.R 3X9Xj.9.d.2X,Xy.d.j.h.#X,Xa./ 6.p.^ *.[ [ ) / ) [ a.<X5X6.7.7.6.3.r.[ [ 5.[ j W ] ` =.",
"D r.y./ 2.%Xa.) 9Xs.#.E 6.d.1X7Xk.w.t.&Xg.s.] l x ( X.,X8Xa.( *.S / y.a.( h.k.s.r.3.r.4.f.d.5X5X*.( S *.[ a.r.6.[ -.] j k *.e.&.",
"3.:X9Xg.%X^ ) ) h.:.x *.5.( *.3.>X0X9X<Xs.k s s l ] E i.j.~ ~ ) 6.6.E Y e.0Xh.-.h.r.g.g.:Xf.d.i.E 5.*.3.^ r.>X>X~ Z Z Z f E 5.T ",
"f.3.6.a.1X( ( E p.k.! *.( _ ,.| X.8X7X] ] ! T g h ! ( p.9.A 6.| ^ ^ *.! h &.h.s.5.h.>X6./ 3.i.~ [ 3.4.E ) 1.7Xs.g.1.^ 3.Y E 5.-.",
"Y C ^ 3.h.k ( *.! p.*.A ~ o...K ..*X8.R *.r.4.Z p g h ;.i.d | | r.r.*.h s s h T ] r.%Xa.) a.f.( ] ^ -.*.r.4.>XD r.a.) [ ~ E ) 3.",
"3.A [ [ <Xk ] A j i.9.a m ..[.{.=X=X X}... .| | f D p 9.9Xd m / ^ k T g l z T *.W C X.rX1Xi.*.[ *.] ^ 5.^ ^ a.Z Z >Xf.f.h.g.a.f.",
"h.Z E [ k.T g ( E d 2XK  XQ.~.cXMX.X/.-XCX=XK m f _ | 3XtX,XC f h k -.] =.;.T Y [ Y a.1X[ [ ) *.e.] e.W f ^ >X^ r.>Xf.1Xa.1X:Xf.",
"( j Y W e.-.( -.[ | 4X X=XoXhXvXJXNXL.XXNXMX].K  .K <.4X4XyXh.h k e.;.] &.` ( *.d S %Xr.S Y Z Y A g T Y g r.7X>X4.r.1.a.) ( ^ E ",
"~ d f Y -.<Xg.r.d.qX4X{.oX(.fXY.P.sXP.pXpXhXMXBX=X..$XqXu.s.1Xs.] -.*.&.&.( [ *.^ a.3X~ ~ *.( E j k ^ [ D >X9Xs.1.) ^ 3.W g k A ",
"S ~ 1.a.j -.h.1X8.K L wXVXJ.H.H.I.T.T.sXjXjXjXNXBXwXeX<.| Y s.9X>X^ [ -.] -.*.( 1.1Xa.d Y ( E k A 5.3.Y [ 9X:XR 1.^ [ 3.] g W ] ",
"| a.,X7X~ ( *.) ) F L oXXXP.Y.Y.sXY.sXpXzXDXSXKXGXHXuXF ,.[ [ -.9X>X*.( *.*.1.~ y.tXa.X.1.( ] ( Z *.Y d 1X7X[ [ [ [ 3.[ ] z ] &.",
"3X8X3Xd.D ) s.6.| 8.=X].A.aXsXsXdXjXDXjXjXjXkXKXGXMXCX .,.3.Q s [ tX6.~ 7.~ 1._ :XrXX.1.1.( *.&.A p C 7.rX:X) *.[ [ ;.] Q l &.&.",
"yXu.2.u.,X1X>XS _ F |.wX@XR.E.sXL.A.8 `.jXkXFXJXb.S.BX{. .( ! h p #X:X6.1._ ) 2.rX8X8./ [ 3.;.&.C s 1.:X<Xj.[ ^ [ [ -.&.W l ] =.",
"yX2. .X.d.3.<Xl._ <.|.]..XpXkXI.L.b   G.sXsXjXKX@ n ZX|. .1.! s h C rX<X~ 2.| #X8X4X8X| ~ [ ] E p f.f.G 9.5X~ 1.1.[ ] &.T g U ! ",
"yX2.) *.! x l 6X*.m {.BXL.pXjXdXXXU.  b.aX`.aXKXv.D.ZX$XF *.h z Q G s.rX9X3XyXeXO.O.&X3Xa.3.*.G 0.0.$.$.$.:Xa.~ X.X.[ ^ T s g ;.",
"yXR i.( ! %.! ;.<X#XiX-XL.L.gXjXpXjXU.P.aXpXpXjXJXZXZX$X .H l ! :.G A / a.8XyX#X . .o.8.#X3XrX0Xl.#.~ $.( ) f.d.) / s.3.s f *.E ",
"tX8.D D &.>.&.! j.3X|.+X/.L.P.aXfXNXGXjXgXpXY.pXGXNXMXwX..v F 2.| ,.~ f a E h.<X] 3.[ / 2.| 4XyX8Xy.%Xf.4.6.8X3X:X4.f.1Xh.9.a.i.",
"&X3Xf f -.] &.] ^ q.K {.oX(.G.G.J.A.L.L.P.P.P.pX(.L.XXBXwXQ.Q. XL .. .H J f G p.;.&.] 3.| M *XuX4Xu.t.o.s.3X7X*.*.*.( 6.d.1Xd.a.",
"D 3Xu.C D r.Y ^ ( X.+.[.oX!.J.J.A.N.c.c.A.gXDXSXDXnXGXJXJXHXZXBXBX=X X..P a f i.k.! ! ;.[ / ,X&X} @.@.t.[ ] ( p.*.G C ( D _ / R ",
"a ,X3Xu.d D T k e.^ 2. .=X~.).^.J.D.N.J.(.DXJXKXnXjXSXgXaXhXvXvXvXNXVXCXiXP J 7.5X#.#.;.W r.r.f @.t.} { ;.;.! 0.5Xf.9.1Xa.4.| 8.",
"d d.&X&Xo.f Y j &.W $.F $XoX_.^.^.S.S.OXhXjXjXSXDXsX`.Y.sXkXjXgXjXjXjXNXVXBXwXuXeX2.,.$.! k.:.c ' w.w.] Q #.#.#.j 7.6.a./ f.4.| ",
"d 1.,X4.4Xg.^ T l w.*.F ..oXS.)._.^.^.(.hXvXvXKXSXjXsXkXkXkXmXFXkXkXjXjXjXNXVXZXCX..N m d 6X:.l z l &.( #._ $.J H H 2X8Xf / &Xy.",
"x $.1.2Xo.&X>XQ z U ( C N {.!.^.^.^._.).OXfXjXDXzXdXsXdXsXdXkXkXxXxXxXkXFXkXjXvXHX@Xv e m 2X7.$.H f J <.<.v v P <.4XCX#XR ^ ^ >X",
"x *.[ y.%X4.s.k.! h a M P {._.^.^.^._.).).XXhXSXdXpXE.Y.I.I.Y.W.T.W.sXlXkXkXkXFXjXGXcX].Q.iX<.P <.}.iXiXI v V |.iXZX4XR 4.Y h 5X",
"c W ) d.8Xs.k.0X<Xi.S F ..{.OXS.^.^._._.(.(.pXjXjXdXY.G.m.n.n.M.T.W.dXdXlXlXlXkXFXnXSXGXHXMXcXZXMXZXMXS.N./.MXBXZXuX+.N / h z k.",
"A h ~ 5Xs.r.3.3.>X:X#X..Q.!._.^.^.^.^.^.^.P.aXjXjXdXY.I.E.sXdXkXdXdXkXkXzXkXzXFXkXkXnXjXKXKXGXSXNXSXDXGXVXMXBXCXCXQ.K | R Z e.k.",
"3.p [ <X] ( Y )  . .$X].F.n b J.J.^.^.^.J.K.`.gXkXkXY.I.Y.sXdXjXSXSXDXDXDXDXSXzXDXFXKXkXFXnXFXkXFXnXnXNXNXMXBXCX[... .X.3.) 5.0X",
"/ Y 1X3.*.3.1.2.+.Q.=XF.n t 2 A.J.J.^.J.J.K.`.gXgXgXY.H.H.T.E.sXjXgXjXnXkXDXDXSXzXjXzXFXFXlXDXkXsXnXvXhXMXCXiX..R | X.) X.) 1.9X",
"/ %X3XY ^ ) 1.F +.=X!.n b b y J.S.^./.J.J.K.`.sXgX'.T.m.z.x.x.i 6 6 6 i i n.H.H.P.pXdXdXjXzXKXaXjXvXMXwX=X8.| ) *.&.-.5.) 2.4XyX",
"u.%XX.Y A Y 4.2. .$XI n n 7 5 A.S.L./.J.J.J.`.'.`.T.G.n.x.n.n.q 6 1 1 , - > 8 z.9 4 0 9 8 b R.hX@X+X XP H _ *.&.&.=.T -.X.o.tXyX",
"f.2.) Y / M Y 4.o. .#X<. XI n N.V.B./.D.A.B.gX'.Y.`.H.z.n.x.i 8 4 2 : : : 7 b B.m.q 1 6 5 : w F...| ~ C 5.Q =.=.] { t./ o.yXtX4X",
"| q.X.S ^ 3.R g o./ r.#XtX$X~.@XJ.N.F.S.A.P.H.T.sXP.G.8 8 i 9 > > 2 7 & .XD.A.G.C.x.i 6 i y n L  .3.( x Q >.=.] e.{ } 4.&XtX#X<.",
"8.:X9.Q z E / u.o.,X,Xu.$XQ.L oX^.v.c.b A.c.H.`.Y.P.K.7 > 7 b 4 8 4 2 7 D.D.B.c.C.H.8 y b.t B V  .| F C 1.7.*.e.^ { t.,XrXrX2. .",
"#X:X5.#.5.<X,X3X#X4. .}.$XL K  X-XS.B.i z.6 m.P.Y.Y.H.b b D..X7 8 8 4 v..Xn 7 z.b.Y.8 6 c.b B F.L K v a J | F / t.%X,X>X7Xf._ H ",
"i.5.5.a.7X#X7.$.$.F L ;X;X{.<.P +X!.J.C.6 G.G.I.Y.Y.aXfXD.n D.n 8 8 7 L.N.: * : > z.i 1 5 N.t oXB Q.V = v }.}.q.&Xg.r.-.j.*.#.#.",
"~ i.j.1.,.F H ,.H  .=X;X^.oX}.J L -X(.(.n.H.KXsXM.dXaXXX+X+XuXB z.9 b L.: + & . &   i aX2 t n t % : * X v =XeXuXu./ ^ 5.<X#.#.;.",
"/ %Xp.j _ qXeX|.$X..!.oX~.!.<.8.<.CXhX(.Y.q FXzXE.T.Y.jX@Xn N F.y 8 L.7 b < * & @ + x.KXaX7 2 < * % O X B !.L }.O.X.[ k.k.W ! #.",
"#XX.G l.tXiX~.!.wX+XwX;XV.~.Q.uX$X{.cX(.aXm.M.JXT.Y.jXvXVX].K L A.8 G.: & 2 * < * & Y.nXXXb 5 $ & @ @ % .XMX].Q...8.^ k.;.-.&.&.",
"*X/ ;.5.}.wX).V.!.=XF.oX^.^.S.-XI V @X/.`.T.M.xXE.E.gXjXNXBX$XI K.> + & z.v.% : + 8 sXFXv.2 ; @   O - 5 L..XoX= +.q./ k.5.*.*.] ",
"u./ ] ) *XBX'._.V.!.@XHXJ.V.^./.+XV ]..XaXT.T.sXsXH.kXDXGXcXL +X(.z.$ # c.P.7 ; 7 8 Y.C.2 & @   @ > + 4 & * X = *XN y.h.^ ] ^ 5.",
"o.[ [  .~.bXbX).^.F.oXGXJ.Z.).S.+XL ]..XXXY.W.W.sXI.Y.gXDXVX].F.> - + & B.(.(.< & + 8 > ; & : : : & $ : + O X =X$X+.3Xr.] e.-.3.",
"^ ^ 3.| Q.BXbX_._.S.S.(.(.(.`.J.F.oX+XD.XXaXY.dXE.P.pXSXnXvXOXn - o o 8 XXL.B.$ o + 8 > 0 ; > -   + > ; o . /.CX|.#Xd.^ -.] [ ^ ",
"{ k ( [  .iXVXOX_._.S.S.(.K.(.`.S..XMX.XP.aXT.kXkXm.I.P.pXfXJ.hXGXpXz.z.J.y $ $ o , 2 : : - < ; ; . $ o + (.VXr $X&X) ] ;.W [ 3.",
"] z ` -.M N =XBX;XOX/./.L.K.aXaX(.A.OXhXL.XXY.kXT.sXpXaXKXpXy b.hXvXaXK.A.7 $ + , - + > 1 o + * . ; @ > GXvXt r [.| [ 5.` e.-.] ",
"' ' ] ] d f O.iXwXbX).`.K.P.fXfXfXJ.L.hXP.P.Y.kX9 sXjXjXHXAXpXaXG.A.K.K.(.fXjXP., - - 8 i $ @ & ; . $ 5 C.t r F.N m E ! z &.U z ",
"%.%.T Z [ 3.1. .*XBXbXfXaX(..XhXhXjXK.aXXXP.P.jXn.q P.jXAXJXSXnXb.G.aXgXNXaXnXjX1 x.8 - + + O O . < $ * 3 t !.L m d s s z h s W ",
">.Q z ] p.] W ^ F +.$XwXBXoXoXOXcXNXfXXXJ.K.G.m.I.G.KXDXDXR.4 pX(.vXgXfXhXvXDXkXsXm.q , o o : < N.HXr B L Q...| / ;.] ` ;.W k ^ ",
"] *.A l U h g g Y M N K [.+X-XoXOXvXNXNXhXaXG.8 FXjXkXFXSXpXP.K.B.(./.hXVXXXG.G.i , x.K.B.b t r -X~.L |. X8.1.( &.&.] ] ;.e.] T ",
"Y [ W T ! Q =.-.W ) | F N L iX=X-XcXOXhXGXGXhXC.P.K.b.P.fXfXaXy u n r B !.B 3 3 & 2 B.v.A./.!.{.V =  XuX .H ) *.&.&.;.=.` -.] g ",
"^ [ ^ ] -.w.w.=.-.5.1.X._ 8.eX X=X-X-XoXoXoXMXVX/.cXhXD.S./..X-XB L V L Q.I v 3 < X 3 n r I |.}.$X$XqX4X| | 5.*.&.&.=.=.&.] W z ",
"o./ { -.-.=.` ' =.` W *.X.a.f.m | 2.#X8...N P ..[.|.eXiXeXeX.. XO.....+.F N v e = I L = X a 8.f m q.q.#Xd.7.^ Q =.&.Q &.p.` z ! ",
"y./ X.t.-.=.=.w.=.=.;.;.W 1./ d *.:.:.i.l.9.7.,._ H _ 2._ H | | 8./ X.) C d m N *XCX}.+.q.| d s f ~ a.i.j.[ E e.] ;.&.&.=.z s ` ",
",XX.X.[ ^ ] ] ;.=.` &.] *.<X1.Z l >.>.&.Q #.i.f.d.i.) $.) ) 1.~ ^ ^ -.5.5.E C 2.rXf.M / A j ! &.x l *.p.9X5Xe.*.] ;.] E l g g l ",
"8X4.X.) [ 5.&.] &.` -.Q *.5X*.Z l ;.-.&.l W ] ( ~ 1XrX,X,Xy.S 6.[ e.&.E 5.&.S <XrX/ a g g ` %.! h p.Q &.p.0Xk.i.e.] Z h Z -.] s ",
"rX,X) ) [ ( 6.( 5.( E r.7X9Xd.R d X.4.^ R y.&X%Xu.3XtX4X#X4XyXf.[ ( &.Q &.] j.9X9XC Z ^ -.:.;.U ! ! :.W *.h.r.3.4.g.%Xs.s.[ Z Z ",
"f.rX:X7.1.~ ( E E 5.j.1X1X1X:X%XM D o.s.3X3X&Xu.4.u.#X,XO.8.#XyX>Xh.p.e.p.j.s.i.r.g ^ 5.-.` >.U l ;.&.-.-.*.s.y.o.>X3X>X,X,Xh.r.",
",.1X9.9.7X:Xd.7X,X1X:Xy.) / 1.y.y.f.,Xd.g.[ [ [ [ ) X.%Xy./ | 3XtX7X7XrXd.3.) 7XX.C ^ [ *.*.&.Q l w.] W ^ [ y.2.g.f./ M R a.1X7X",
"~ :X7._ 1XrX,Xa.6.X.~ ~ X.4.1./ :X,X:XS ) E *.( *.^ 5.5.1X6.f.:X6.6.) X.~ | y.,XX.S D g Z W ] -.z W r.5.4.6./ 6.y./ D R X.3.X.[ ",
"3.6.i.:X<X3.~ ) [ [ [ 1.3.-.^ C X.a.a.C *.*.e.] *.( *.~ <X:X8X8X~ 6.) / ) / 3X3X) ) ( A j A A ( h f ^ ^ Y M D 7X%X) D ~ [ / ^ [ ",
"~ a.1Xg.[ [ 3.[ [ [ [ ] ] &.-.-.a.#X8.D [ ( ] ] ] -.( *.3.f.d.>X,Xf./ ) 8./ %Xd.[ [ 5.5.] ( j f Y X.Z C D d 3.7X6.Y S ) [ 3.r.r.",
"3.4.s.r.[ ^ [ 5.[ *.&.] =.=.` W 3X#XS f [ 5.&.&.&.=.` e.W *.^ ) 1.:X3X6./ | g.7X[ W Q -.] ;.T g 4.,Xy.a.:Xa.i.a.f.D j *.i.s.s.g.",
"[ s.g.3.[ t.-.] ] ] ] &.=.=.=.` 4.u.~ d Y &.` ;.=.` =.&.` &.*.^ ~ / ,X,Xo.1.R 1Xr.[ ] -.W p.s.>Xr./ ) 6.d.~ a 7.5Xj f p.1Xp.] ^ "
};
