/* XPM */
static char *_dffd54595f14faef48535185a390751ODovRe38K3SGQnI9[] = {
/* columns rows colors chars-per-pixel */
"64 64 185 2 ",
"   c #218092",
".  c #25869C",
"X  c #2B8599",
"o  c #258C9D",
"O  c #2C8E9F",
"+  c #26909E",
"@  c #2A909F",
"#  c #278EA2",
"$  c #2C8EA3",
"%  c #2E93A5",
"&  c #2F99A7",
"*  c #2D95AA",
"=  c #2C98AD",
"-  c #3294A5",
";  c #3299A7",
":  c #3495AA",
">  c #3897AE",
",  c #359BAD",
"<  c #3B9BAE",
"1  c #359DB2",
"2  c #3B9DB2",
"3  c #3AA0AF",
"4  c #35A2B5",
"5  c #3DA2B5",
"6  c #37A5BA",
"7  c #3CA4BA",
"8  c #37A8BA",
"9  c #3DA9BC",
"0  c #429AAE",
"q  c #429EB1",
"w  c #42A3B5",
"e  c #49A3B5",
"r  c #42A8B7",
"t  c #44A5BA",
"y  c #4AA5BA",
"u  c #44AABD",
"i  c #4AABBD",
"p  c #51ACBE",
"a  c #4BB0BE",
"s  c #3FA7C1",
"d  c #3CAAC1",
"f  c #3DB1C0",
"g  c #49A7C0",
"h  c #44ACC2",
"j  c #4BADC2",
"k  c #44AEC8",
"l  c #52ADC2",
"z  c #5AADC3",
"x  c #52AFC8",
"c  c #58AEC9",
"v  c #45B2C5",
"b  c #4CB2C5",
"n  c #46B3C9",
"m  c #4CB4CA",
"M  c #4DB9CD",
"N  c #53B3C5",
"B  c #59B5C6",
"V  c #56B8C5",
"C  c #5BB8C7",
"Z  c #54B5CB",
"A  c #5AB6CB",
"S  c #54BACD",
"D  c #5ABBCD",
"F  c #4EB7D0",
"G  c #4EBBD1",
"H  c #4EBEDB",
"J  c #55B7D0",
"K  c #5CB6D0",
"L  c #55BCD2",
"P  c #5BBDD3",
"I  c #55BED8",
"U  c #5BBFD8",
"Y  c #61BBCD",
"T  c #63B7D3",
"R  c #62BED3",
"E  c #64BED8",
"W  c #4FC0D2",
"Q  c #55C2D5",
"!  c #5CC1D5",
"~  c #55C2DA",
"^  c #5CC4DA",
"/  c #5DC9DD",
"(  c #62C1CE",
")  c #62C2D5",
"_  c #6AC3D6",
"`  c #61C8D7",
"'  c #69C9D7",
"]  c #63C5DA",
"[  c #6AC6DA",
"{  c #64C9DC",
"}  c #6BCBDD",
"|  c #70C6DC",
" . c #71CBDD",
".. c #6CD2DF",
"X. c #52C3E3",
"o. c #5CC7E1",
"O. c #5FCAE2",
"+. c #62C6E0",
"@. c #6BC7E0",
"#. c #64CBE1",
"$. c #6CCCE2",
"%. c #70C4E0",
"&. c #72CEE2",
"*. c #79CFE6",
"=. c #71CFE8",
"-. c #65D1E3",
";. c #6DD1E4",
":. c #6ED5E9",
">. c #73D3E5",
",. c #79D4E6",
"<. c #73D9E7",
"1. c #78D8E6",
"2. c #74D5EA",
"3. c #7AD6EB",
"4. c #75D9EC",
"5. c #7BDBED",
"6. c #76D4F0",
"7. c #75DCF1",
"8. c #7CDCF2",
"9. c #7FE2F5",
"0. c #7FE4F6",
"q. c #7DE2F4",
"w. c #7FE3F9",
"e. c #81D7EE",
"r. c #81DDEC",
"t. c #81DEED",
"y. c #82DCEE",
"u. c #86D7F4",
"i. c #81DEF0",
"p. c #80DCF5",
"a. c #82DEF2",
"s. c #83DFF8",
"d. c #88DEF9",
"f. c #83E3F5",
"g. c #8AE4F5",
"h. c #81E8F7",
"j. c #82E8F7",
"k. c #8CE8F7",
"l. c #87E3FA",
"z. c #84E5FA",
"x. c #88E7F9",
"c. c #8BE2FD",
"v. c #8FE3FF",
"b. c #8BE7FE",
"n. c #8AE6FB",
"m. c #87ECFE",
"M. c #85EAFD",
"N. c #8AE9FA",
"B. c #8DE9F8",
"V. c #89E8FE",
"C. c #8EE8FF",
"Z. c #8BECFF",
"A. c #8CECFC",
"S. c #8CEBFE",
"D. c #90E6FF",
"F. c #93E3FF",
"G. c #91EDFC",
"H. c #92EDFF",
"J. c #99EDFF",
"K. c #8DF2FF",
"L. c #93F0FF",
"P. c #93F2FF",
"I. c #94F1FF",
"U. c #97F2FF",
"Y. c #92F4FF",
"T. c #95F5FF",
"R. c #96F7FF",
"E. c #94F3FF",
"W. c #9AF5FF",
"Q. c #99F6FF",
"!. c #9AF5FF",
"~. c #95F9FF",
"^. c #99F9FF",
"/. c #98FAFF",
"(. c #9CF9FF",
"). c #9EF8FF",
"_. c #9DFAFF",
"`. c #99FEFF",
"'. c #9CFCFF",
"]. c #9CFBFF",
"[. c #A0F5FF",
"{. c #A0FFFF",
"}. c #A5FFFF",
"|. c #A3FEFF",
" X c #AAFFFF",
/* pixels */
"! S ! h., i /.) >.`.b b { m 6 9 ^ ! A } _ A >.t.H.}.} A P ) ! m.' 3 r + 7 { / G ~ G Q ^ L Q m.N 5 P ;.>.b ! ^ S Q f M / L Q p._.",
"S ` ` { r - 5.Y.} D ;.S D Q L h u j w } P.N B._ C } } ) ) t u 0.q.; @ , L S m O.I ~ I L S b 5.} w ! 2.5.V P Q Q Q v W ^ L P @.A.",
"D t 2 } >.e p t.) N x.;.Z P ] L Z S V } N.N.H.Y ) _ 4.A N : t 5.T.) 5 5 ` L L ^ ^ / Z L #.P 8.V.P ;.8.9.` ! Q ! M 9 Q Q Q P K c.",
"< 2 l I.,.D e t.C 5.) 2.} A ! P ] { ) A A x.P.B.B _ Z.V r j ! 8.}.'.[ w ! ^ ^ L L P L ! ] S { $.r u N ! P P ! ! M 9 ^ L ^ { B F.",
"i._.Q.I.&._ e  ._ 5.q } l.$.$.{ b S S D ' w P./.T./.|.V : N $.Z.Q._.>.N $.P S P ^ ^ ] E A [ b.b.5.>.;.;.$.P D Q M 9 ^ L ^ _ c v.",
"&.3.C 0 y._ y  .g.>.i.l.H.p.V.Z.K.<.P b A V x.P.D ) 8.i.M.Z.4.2. .5.&.A 4.$.] } U S S P ] b.H.4.! ! ] ] $.P ! { b 4 L L P E T F.",
"_ ,.} l H.[ _ 5._ i x.$.Z A P $.9.4.V.Z.h.K.A 2 t 2 V } P.>.P N B ) } N 2.V.>.$.$.4.4.V.Z.Q.$.t P ! ) ) 5.) Z b u 1 m P P P [ F.",
"A A.Q.,.5.x.H._ A D 5.$.j { N P S { x.Z.Z.b N : - 2 ) ! f.i P ] ) N D i <.M.;.;.$.M.4.] ^ #.S $.! D ! } I.f.] j b 5 m ] P A %.u.",
"N D /.V j V 8.P t { b M.b P S ! ` b <.z.Z ^ Q S t o w P 8.t ] A ! D P , - 5 ! D :.z.P P 7.Z ] I ^ j } ] 8.P 8.{ S S 2 P { 3.d.T ",
"< o D ) 5 D 4.! b b , <.` ; 5 b u P M.$.^ b ^ ! j % > t V.j : ] P M u * , , b S m ^ K.4.7.^ m Q L $.! N 5.q N z.{ :.#.$.$.Z.c.T ",
"i N ' ' a ` { ^ * m b u ;.u ! 3 , ! D b S Q P P 5 u t P  Xx.y - * u m m ! M v b 9 Q `.#.I ^ F I S D 2 N i.l ) x.8.q.M.M.2.V.8.p.",
"a V 5.' , r ;.-.S S Q ! M.! D D ' >.5 7 7 b 7 5 5 P P Z.'.T.x.O u L / Q Q D S b b q.;.u 4 m I b b r % } H.3.2.} $.^ L ^ L ^ { 4.",
"( ,.V w i , 5 0.7.#.4.z.K.4.r ) q.{ D u u # h b ^ L ] Y.} P I.5.^ S S ! S P ! N D z.j S L L 9 1 m D j x.Q.} A P P Q = 4 9 L { S ",
" XB.< y A 4.P b 8.w.;.u t x.5.P...S ! ^ u 1 I #.] m 2.4.A B [ P.9.P b { ) ) D P _.f.2 j j m 2 ] ^ b } T.5.Z A P Q { 4 M M v Q P ",
"g.!.N B a.}.>.t P L P ) } ,.t.x.) ! D ^ 4 S M I F ^ Z.{ R &.p A T.Z.! A A D V &._.[ A } { ^ 7 h S 5 f.P.P A $.S L L 9 ~ W 8 7 Q ",
"Y r.|.|.H.>.5.Z 8.) V ) ,.e &.>.b S -.9 u Q ^ Q L 4.P.] A R N : j Z.2.V P } B 4.}.[ R D A P ] * ; ] }.5.A ) P P ^ S 9 v Q / 9 h ",
"A D 5.T.} A 5.x.T.&.N } ,.< >.} Q Q Q 4 S ^ D D }  XA.[ R V b , $ &./.V N D ) T.|.f.A V ) [ > 2 <.' 4.z.b ! $.S ! S 7 Q L Z h t ",
") b ) `.P N ) A l P.[ q 2.x.5.' L n v Q ! ! a >.Q.G.).>.P ;.4 * 2 y '.}.f.1.f.f.5.>.} D B B l P 4.! { 9.;.S S ! L m $ 1 u P ] ] ",
"w w S ~.V } ' y q >.4.} 5.|.f.N ^ n h Q L Q ! /.I.p ,.x.R D * m ] y ) i.T.'.T.' B } T.P.f.l.f.5.V Z Z ! 4.^ m ! { h # m ! j P b.",
"% i } ~.A N N V ) t >.T.2.,.5.w 1 9 Q M ! ! ;.i.[ C } !.[ u b { ! P y : i >.Z.) ) p N A &. X_.} { $.;.$.K.0.;.#.8.;.j S 2.2.p.T.",
"% 5 P M.4.% , >.) A _ [ ] j $.S * b #.S Q { 5.} _  .Y ).n.t r ! ! ) A w O w f.' C _ ) A i H.~.M.8.$.;.4.m.:.{ Q ` m.~.M.$.A 2./.",
"i < ; b Y.S r D j A D l ) t >.2.h ^ Q ! m ;.q.3.C Y z ,.|.5.S ! P ) P D N O A 5.B ( D D ) h.} D P Z P ! ` ` ^ m j r j P [ A $.3.",
";.S : % Y.h.! - j < A ] P j &.f.t P S { S } 8.>.l | _ z H.|.K.;.N ! P D ) : B _.) _ ) A >.A i ` Z ^ ^ ^ ^ 2.:.#.M.9.<.Z N R l.&.",
"! S u 5 M.q.4.N N > A ] N Z A V.) ] ) S P { '.Q.e.T z R n.B >.K.Z.) ] } 4.A. XT.>.C A y V.w ; ` ^ ] m ^ ^ S h #.#.S { <.$.) i.$.",
"Z { j , ;.9.$.M.$.N t P ) i $ 2.H.A P P P 9.V.2.e.J.J.[.!.q < ' 8.`.`.Z.P.x.f.'.,.- < l 8.P u 2 m b P L u 9 M L L b u ] 5.N l.} ",
"{ S j 5 S ` 8.` 9.$.V w j i - 2 A.A.] A 4.7.] N B l [.e.3.i.O S ! Z.7.V P V N >.3.q   N M.{ P m u 4 , , h ^ #.L ! ! j N i.5.A.l ",
"L Q b 2 P ! M.:.;.M.9.$ $ V ) w R _.A.x.Z.$.P ] Z A c.T N 5.} q.4.S L ] A _ } y i.5.j 4.<.b L ^ L L 9 # , b m h m S t > i._.A.y ",
"b ` ! 2 j { M.q.<.8.Y.M.2.P P A N [ 3.8.{ b P P g E ,.T N V 5.) L ^ P S ! P R [ N.A.} V.{ ` #.Q I / b = 1 h b S b b 5 > x.|.a.C ",
"^ S { j # ;.8.! Q b P 9.<.{ P j y N V.V.L P { P x l A._  .} ! % # P ` S ) P N Y l.) } 5.5 Q P m ^ F 6 6 L ^ Q ^ ! P N V Q.[. .C ",
"` D ! b u M.^ P P { N Z Z M.Z.$.y &.'.2.Z P Z P x R _.,.A.N...5 * = h ] ] ) } &.).R l.2.2 ! I / #.b 9 m #.^ L L ! ^ A ] _.Q.Y q ",
"D ^ S S 4.M.u ` ! ` P ` P ] <.$.!.!.5.S P { I L > $.>.f.P.} ` 5 4 h 5 2 i i _ |.>.y } < , ^ L S L h h ^ ^ Q Q ^ S P A 3._.l.C y ",
"! S Q ;.9.Q , j P ] P A ) A 5.2.) V t ! ` Z P L Z $.: ) >.r ; & D S ! w - ' i.i y _ I.: - Z Q ^ I h n ^ ^ I ^ P ! ) ) H.|.,.D [ ",
") P 4.4.$.j V V q B _ [ R B H.M.P 4 * ^ { S ` r K.q.S K.r o , 5 b } D D m.7.7 b j ] _._ < i D P ^ 4 Q ^ ! L ] A R Z b._.A.) P A ",
";.h.>.P 2.{ l B B y q N } k.g.D S O., 1 u b u <.h.M.M.0.b u ^ Z > w } m.7.Q m L P =.c.a.B q } S ! 7 L P ] ] _ P _ p.}.l.) j P ! ",
"' 5.$.;.8.P > N P &.H.Q.5.k. .D L b S u - ` 4.) ) ) M.5.S t P ] l Y x.h.L M #.Q P Z 3.5.5.D y N 4 7 L P P A D E 8.Q.!.[ V S ` L ",
"5.' $.8.x.$.4.Z.T.8.R l p >.>.A ] ] { N l.>.) N Y V P ,.A y N P ,.I.5.S L Q Q P ^ 3.l.j 3.P.} ;.u m ! S P } 2.H.8.A.2.A ` ` ! S ",
") V A N >.$.4.{ V ) P A B C ,.C A R A [ I.y i } _ } _ 3.$.N 7.5.[ g.R N ;.Q b ! N $.$.[ 8.8.~.Y.~.'.~.M.Z.Z.&.} R 8.] P ^ D S Q ",
"S ) ] ) 8.} A P ] $.' ) ) N t.) A Z 2.|.z q a.,.g.&.R 5._.R 2.l y  ._ P ! S ^ P $.) I.Z.A < N u Z $.<.2.8.V._ l P p._ P P S Q Q ",
"A P A } ` { #.M.Z.M.z.h.,.>.x.5.>.A.A.Q.[ &.5.} [ 3.A.I.s.> y 2 l *.} P N S ;.P N $. XA . Z ! r b ) ) V A 3.} ] $.f.L P Q Q ^ Q ",
"_ R A 5.t 4.7.] { S P $.} 5.>.} >.} l B Q.H.R R N ) P _ 4.T.=.2 [ 3.B D ] S ! S A Z.V.N i u b t N ! P P ] V.$.N $.<.m ] Q m Q ~ ",
") A ;.>.P P P Z P ! ^ S S ) ) >.5 w } P <.{ ` L L ] L 2 m ] ^ 2.$.H.D ) ! S ) A [ _.A.A } D h ; S _ ) V ) Z.] S 9.^ S M ^ / Q Q ",
"y } f.} h L ] Q L L Q P ! ! ) q.i ! P D q.! L ^ / L 7 * h M h J 8.!.Q.] Z ` b ) 3.Q.l.P ) ) S 1 w ) A A A.K.j ;.<.` ^ Q L L M / ",
"5.5.) S j ^ L L ^ L ^ ! L j i } ' ' N ` 4.S L L n m m h 9 1 6 #.$.l.5.4.M.q.5.} } n.3.R V P L u i y } Z.Z.Z.2.z.^ m S L ^ / Q ^ ",
"5.x.V N j ^ L / L h 7 1 1 7 b 4.N.S D 5.{ L ^ n n n Q Q I n k #.N @.f.$.z.K.5.] R l.} R A ! m h ! ) f.} A Y.~.` { P ^ Q ^ I h 6 ",
"C x.V r 7 L 9 = = 4 n m L L j b K.i ) >.S L v d I I o./ / ~ b L ^ $.7.w.<.3 r D _ n._ B [ { j u 5.f.N - ) { u Z S L #.I b h 8 d ",
",.I.) D L Q m 8 / / / L Q ^ N V P.} q.' P Z = k ~ ~ o.I L ~ m b S Z 4 M.Z., D D N a. .B P P m S 8.< N >.b % 7 1 1 2 9 6 d F I ^ ",
") 5.) D h 1 M -.L G Q Q / { P } B.t.I.] S h 9 / O.n k h L ^ b 1 5 5 b S ;.Y.q.} B 3.a._ P P #.S - ' q.! ! b b u b u 9 1 h ^ P I ",
"i.I.} D S v Q v h 4 6 9 b m S 2.C N 3.N % . L ^ k k L F t 7 1 2 ^ ^ L { b S >.I.a.y.G.y.3.8.x.5 i } 4.D ! ! #.L Q ^ / M m Q Q ^ ",
"5.}.$.r { 7 1 b b b Q b m h 2 ;.} } q.5 m S 4 6 F I ~ / o.L s 6 d v ~ ^ b N D V G.g.Y _  .i.A.X i N.} S P { L M / m Q G h M Q M ",
"A P.N.5 P Z ^ ^ I L ^ P ^ P j 4.V.} Y.q.! L h 7 I o.^ I ^ ^ I F F 7 9 S Z u N ) H.B.>.t.t.,.l.[ >.Z.,.A P Z L #.L ~ / v 8 Q Q 8 ",
"A 5.~.S ! m { ^ ^ L ^ L ` ` S 8.D e 4.Z.;.$.b v I I L m L Q ^ Q / ~ F m u 5 r ! T.B.3.&._ y y P f.,.>.V $.` P S m ^ O.7 6 Q Q v ",
"P ) T.>.^ Z P L P L ^ L P P A >.y e S S $.<.^ 7./ P P ] ^ L L L m ^ ^ m 5 - t $.'.4.) N j w . 2 } ,.Z.] Z S P { #.L h 4 M / v 4 ",
"2 N V.p.P ] ] L L P ] ) P A P >.N y ! N #.S S #.:.$.$.{ P A ) ) ! L Q ` S < V T.h.w w t b P 5 h V $.T.Z.{ { S P Z t 1 * 1 u b { ",
"> i 4.P.#.P L ^ P P P S V _ t.I.V O A ) ^ 7 L ^ S ;.Y.'.V.i.&.l ! S S ! ) ! 4.}.' o 2 j M I 7 M ! A $.P.f.7.P P : h ^ Z 5 t b ` ",
"j j ] P.b.] P { ] P A P _ 3.H.I.4.5 i S ^ ! q.M.8.7.Z.P.5.3.A.H.! S S D ) ,.A.P.N r ! L Q G 4 G ) D S $.{ P 2.Z.P.4.@.b h P ] L ",
"w j S 6./.f.7.] _ _ } 8.x.b.l.} f.' b ! M.K.4.;.{ b [ x.&.B  .B.}.M.h.Z.5...>.4.% S ;.M Q ~ 8 Q D ! S ! 4.` 7.4.=.$.V.P.f.8.=.P ",
"t j ] $.2.R f.T.Q.Z.f.3.$.R P D A } M.K.;.Z P L P P N } A. .Y f.I.i.5.>.} V Z.>.w r b S #.Q d G ^ N ! ! D } } V i w P $.f.P.z.Z.",
"S w ] N f.) V.P.[ ] P P P S S P j ! ;.2.b S L Q P { A V >.f.x.|.N B ] D D } /.! D b 5 * 7 L d = S ` N b P M.} P w R $.Z g N A K ",
"- 2 P P 2.l.>.D P D P P ! P ^ ] b ) 2.$.5 ` L P Z ] ! V ] 5.l.x.f._ R A D ) P.) ) D ' L 9 9 9 h , j t ; b Z.>.w N ) S P 2.4.6.2.",
"2 2 Z R } A.) A ) P P ! ^ I I ^ D } M.) 1 ! P Q L L ! ] P P ) R &.8.b.] B &.T.A A A ) D h 4 j 4.M.S 4.$.4.>.>.> j } $.4.8.$.6.V.",
"} - i ) x.>.N ) P A L P I I I I S ) Z.Z , j L ^ ^ L I ^ P S P ^ j $.V.5.V B t.5.Y D N V 5.9.] ] Z ` V.j N 2.q.O S f.8.{ L m U U ",
"|.$.) f.P.Z.) ) ) P Q ^ / ~ ~ / b A K.{ S u m m I I ^ ^ I ^ ] ^ #.L $.Z.l.R &._.,.3.i.H. XT.] P 8.M.8.<.;.$.D >.Z.4.P S ^ ] +.L ",
"Z.P.A ( i A.} V ) P I ~ ~ H H ~ Z S q.M.4.Z m h F L I L I ^ I L L ^ ] 7._._.i.3.y.a.[.I.[ N D &.N { Z S P ` b K.0.N Z ` ^ L I o.",
"R f.>.) Y k.x.) ! P I ~ ~ ~ X.o.P N ) h.8.Q ^ I L m k n L L L ^ I ] Z Z 2.3.A Y C [ Q.>.X 0 _ B ] P P ! ) S ! M.i - S ^ S ^ ^ L "
};
