/* XPM */
static char *_f767229ff954a39be4899c5796af55e66tKSOODWSOAKhjo[] = {
/* columns rows colors chars-per-pixel */
"64 64 256 2 ",
"   c #00090D",
".  c #010D13",
"X  c #020B18",
"o  c #130E15",
"O  c #0B1516",
"+  c #03131B",
"@  c #0B151B",
"#  c #06181A",
"$  c #12151B",
"%  c #00110F",
"&  c #011523",
"*  c #021B23",
"=  c #0C1B24",
"-  c #041D2B",
";  c #0B1D2A",
":  c #061528",
">  c #111D27",
",  c #041A32",
"<  c #131F37",
"1  c #02232D",
"2  c #0C232C",
"3  c #092528",
"4  c #14232C",
"5  c #162529",
"6  c #0C2333",
"7  c #082936",
"8  c #132533",
"9  c #142934",
"0  c #142D3C",
"q  c #1A2D3B",
"w  c #192736",
"e  c #09323A",
"r  c #1C323C",
"t  c #183238",
"y  c #242936",
"u  c #23323A",
"i  c #28343B",
"p  c #03201E",
"a  c #162C42",
"s  c #0A3645",
"d  c #1C3543",
"f  c #193947",
"g  c #183B54",
"h  c #0B304F",
"j  c #262A43",
"k  c #233543",
"l  c #233B44",
"z  c #243D4B",
"x  c #2C3C4C",
"c  c #2B3846",
"v  c #333C4C",
"b  c #273C55",
"n  c #323C55",
"m  c #1F3C63",
"M  c #18444B",
"N  c #1C4759",
"B  c #094249",
"V  c #28424C",
"C  c #2C4C5B",
"Z  c #284457",
"A  c #354857",
"S  c #304F58",
"D  c #1A4E69",
"F  c #2A4A67",
"G  c #334C66",
"H  c #295568",
"J  c #375668",
"K  c #2C5A75",
"L  c #375874",
"P  c #254D70",
"I  c #2B6679",
"U  c #376777",
"Y  c #39737C",
"T  c #346A73",
"R  c #1B6E7C",
"E  c #434E5B",
"W  c #465868",
"Q  c #445D77",
"!  c #525D6B",
"~  c #466677",
"^  c #516977",
"/  c #606C7A",
"(  c #335D82",
")  c #2A6A82",
"_  c #396886",
"`  c #377486",
"'  c #337390",
"]  c #1E7B8D",
"[  c #466A87",
"{  c #477686",
"}  c #477897",
"|  c #54758F",
" . c #637A91",
".. c #485E84",
"X. c #2F8C99",
"o. c #2895A8",
"O. c #3797A9",
"+. c #389CB4",
"@. c #2E95AC",
"#. c #3DA2B4",
"$. c #3AA4B9",
"%. c #39A7B9",
"&. c #34A9B3",
"*. c #488899",
"=. c #578899",
"-. c #4C898D",
";. c #678B98",
":. c #5789A6",
">. c #4799AB",
",. c #5799A8",
"<. c #429DB3",
"1. c #4B9DB1",
"2. c #5294B0",
"3. c #6697A8",
"4. c #7599A9",
"5. c #6995AB",
"6. c #43A4BB",
"7. c #45ABBC",
"8. c #4AA6B8",
"9. c #53ABBC",
"0. c #58A7B8",
"q. c #59B3BC",
"w. c #4AABB5",
"e. c #67A9BA",
"r. c #75AAB9",
"t. c #65B3BD",
"y. c #77B5BD",
"u. c #6FA3AC",
"i. c #3AACC5",
"p. c #44ACC3",
"a. c #4BADC4",
"s. c #49ACC8",
"d. c #56ADC4",
"f. c #46B3C4",
"g. c #4CB3C5",
"h. c #4CB4CB",
"j. c #4CBACC",
"k. c #46B8C9",
"l. c #53B3C5",
"z. c #5BB3C4",
"x. c #5BBAC5",
"c. c #53B5CB",
"v. c #5BB6CB",
"b. c #54BBCC",
"n. c #5BBBCC",
"m. c #55BBC4",
"M. c #4CBBD3",
"N. c #54BDD3",
"B. c #5BBDD3",
"V. c #55BDDA",
"C. c #5BBEDA",
"Z. c #56B5D3",
"A. c #67ADC3",
"S. c #79ADC4",
"D. c #64B4C4",
"F. c #62BAC5",
"G. c #63B5CA",
"H. c #63BBCC",
"J. c #6BB9C9",
"K. c #73BBCB",
"L. c #78B8C8",
"P. c #62BCD3",
"I. c #67BBD5",
"U. c #77BDD4",
"Y. c #4BC3CB",
"T. c #55C2CC",
"R. c #4BC5D6",
"E. c #55C1D5",
"W. c #5BC2D5",
"Q. c #56C3D9",
"!. c #5CC3DA",
"~. c #5DCADC",
"^. c #56CAD5",
"/. c #58D2DD",
"(. c #68C2CB",
"). c #76C5CC",
"_. c #63C3D5",
"`. c #6BC4D5",
"'. c #62C4DB",
"]. c #6BC5DB",
"[. c #64CADC",
"{. c #6BCBDC",
"}. c #68CBD5",
"|. c #74C3D5",
" X c #73CBDC",
".X c #7DCCDD",
"XX c #78C6D7",
"oX c #66D2DC",
"OX c #79D2DB",
"+X c #5BC5E3",
"@X c #4DD0E2",
"#X c #65CDE1",
"$X c #6CCCE2",
"%X c #68C9E4",
"&X c #73CDE4",
"*X c #7CCCE5",
"=X c #6CD3E4",
"-X c #6AD7E5",
";X c #73D3E4",
":X c #7AD3E4",
">X c #74D5EA",
",X c #7BD6EA",
"<X c #7BDCEC",
"1X c #75DAEA",
"2X c #7CDCF2",
"3X c #77D9F4",
"4X c #6FD4F0",
"5X c #7DE4F4",
"6X c #79E6F2",
"7X c #859BA7",
"8X c #89ABB8",
"9X c #86BAC8",
"0X c #8ABED5",
"qX c #94B9CB",
"wX c #A5B9C4",
"eX c #87C3CC",
"rX c #86C8D7",
"tX c #97C9D9",
"yX c #85D4DB",
"uX c #98D2DD",
"iX c #97C4CD",
"pX c #A7CDDC",
"aX c #8BCCE6",
"sX c #98CBE3",
"dX c #82DBEC",
"fX c #87D6E8",
"gX c #97D6E6",
"hX c #85DDF3",
"jX c #88DEF5",
"kX c #99DAF4",
"lX c #A5D7E7",
"zX c #A6DCF4",
"xX c #B4D8E8",
"cX c #83E3F5",
"vX c #8DE3F4",
"bX c #84E4FB",
"nX c #8BE5FC",
"mX c #84EBFB",
"MX c #8CECFE",
"NX c #86E9F5",
"BX c #93ECFE",
"VX c #96E7F8",
"CX c #8BF2FE",
"ZX c #94F2FE",
"AX c #9BF3FF",
"SX c #9DFBFF",
"DX c #95FBFF",
"FX c #91E5EC",
"GX c #A5E8F9",
"HX c #A3F4FE",
"JX c #A3FDFF",
"KX c #A9F8FD",
"LX c #B4F7FF",
"PX c #B4E6F5",
"IX c #C5FAFF",
"UX c #D1F4FC",
/* pixels */
"F.8.vXfXq..XyXrXtXy.;.{ L G A A A z f z z f d k v j v A  .7X8X8X).(.|.|.rXsXgXgXrXfXXX&XcXNXDX#XE.N.E.N.'.;X{.l.n.l.O.O.[.#Xf.~.",
"vX:XfXjXGXGXA.:.U K H C H C Z V C C C C C C C G A W A A r V V { ,.t.J.t.K.kXgX).fXJ.VXnX&X{.[.!.j.E.E.h.W.MXMX;X8.l.l.O.g.N.N.E.",
"KX|.K.rXe.) D D H H K K T T U Y T T Y T T T U U J J V J J Z M H ` _ ` *.9.x.T.(.|.hXBX8.c.1X!.N.E.!.!.B.n.NX1X].:Xz.8.8.g.!.!.!.",
".XU.e.2.' I { I _ _ U U ` ` U I ` ` ` ` ` Y U T U J J C e e 3.uXlXrX,.) R X.w.x.z. X:X].mX1XN.N.N.N.N.#Xn.,Xz.d.<X XP.{.c.'.W.3X",
"I.fX>.) ` _ { } [ _ _ I I I I I I ) ' ) ) I U U U F H M s T eX,.>.>.z.|.e.' X.q.m.#.6XJXcXn.W.N.[.N.b.B.a.;Xd.9. XjXcX>X2XbX>X2X",
",X X9.G.U.2.} ` _ _ } *.*.} ` ` ) ` ' ' I K I _ U U H C 7 r.tX` <.g.n.v.XXaXL.*.d.9.ZX[.6.n.W.b.B.b.c.+.+.bX;X`.:X;X2XP.MX3X=X#X",
"1Xl.O.O.d.jXGXU.A.} D h g m P K _ _ _ _ K D F L L L J L N lXGXe.7.T._.I.z.d.I.*XA.U.aXd.v.b.7.g.#.#.g.O.d.JXBX,X_.v.$Xv.a.@.p.~.",
"o.7.g.7.9.n.&XjXVXkX0X:.P h m [ L F Z F F b g b F b b F L sXPXGX_.T.n.n.n.n.H.G.U.gXaXXXI.8.P.6.g.7.{.b.;XSX>Xl.B.n.B.W.o.g.g.h.",
"O.l.W.1XmX%.W.=X`.I.>.zXzXP F  .G n b b b b b b b g F m [ 0XaXkXGXfX_._._.H.D.H.fXHXXXXXkXJ.1.<.W.b.b.7.CX5Xb.b.B.B.b.N.$.~.g.%.",
"`.:X5XJX-X&.T.oXb.x.|.U.sX:.L ..n n x a 8 0 b G L Q | _ ( _ ) ' } 2.d.G.U.*X.XJ.vXZX`.D.XXVXvX8.#.7.6.-XDX1Xg.[.N.W.[.~.+.k.k.W.",
"LXHXBX&XcXm.5X~.m.m..X|.e.sX[  .b x x q 1 - 7 a G L [ } } ' ' ' P P K ( [ :.e.U.LXAXF.x.{. XhXVXX.O._.CXSXg.B.N.N.N.N.j.%.#X~.E.",
"kXLXJ.9.OXNXNXNXm.F.|.K.,.PX[ F z x l d 0 1 * + 7 g H [ } ' *.2.2.} [ ..L F P K 5.sXyXH.m.x.OXdX}.}.<X{.CXc.$X'.B.!.~.b.+.h.j.k.",
"K.HXG.U.H.F.0.FXOX0.K.gXzXS.{ Z Z z d d d 0 7 1 & , 7 N L _ ' _ _ } } [ } | [ L g N { S.K.(.T.X.<XdXH.7.<XcXc.v.!.c.N.s.@.$.a.N.",
":XVX XJ.J.0.0.A.gXrX9XLXsXU U U C C Z M f 0 7 6 & & & , g L [ [ [ _ ( K _ [ [ Q [ Q J F U e.FXBXOXq.H.G.P.<X&Xv.I.'.B.+.o.h.'.B.",
"oXCXm.q.t.rX,.:.5.tX4.;.Z f Z f G G G C z 0 9 4 > = 8 : X , f ~ _ ) K _ U K K L F L L J F g [ PXgXz.fX Xz.&XJX2X].,XnX].p.B.$XP.",
"^.DX:X1.XX*.D K H J a : , a Z f Z Z Z b V V V v E = @ X = 4 X 6 H I _ K K K L K F Z J L J G n b S.VXXXfXdXAXvX$X,Xc.&XZXSXnX>X$X",
"&.n.HXe.=.I Y I H F F Q ~ J z 0 z J W A A W W E w > @ @ @ @ O * 1 e N U U K P L G G F G G Z b Z g Y rXK.U.|.&XB.b.g.g.g._.B.C.B.",
"X.q.L.| ;.=.3.` { g Z L f 7 8 ; r V A V k q 8 : > @ @ @ @ O O O + - 7 M H U L F G G F b Z Z Z Z C g U U.0.P.{.1X1XW.<X=XW.b.B.B.",
">.U.=.;.4.| U H b A j a d &   = 8 2 8 9 9 ; : ; + + + O @ O O O @ @ & - f H K H H F G Z b n v l l 7 [ gXaX8.}._.[.-X5Xb.=X>Xv.$X",
"0.L.L Q n ^ ^ f x c j j 9 ; = 5 k q 9 9 9 2 ; 8 = @ + . O O O O $ $ $ : - e N J F Z b b c c v c l d J sXGXfX9.6.g.!.W.O.W.2X'.B.",
"0.L.L 0 a W z z j j j y y 4 5 5 r d k l k d q 9 r 4 @ . . O O $ o o $ = * - 0 Z L G A x c k c c x q e { gXXX<.].'.j.E.b.6.n.nXG.",
"1.0.=.f W Z a J ^ ;.! = @ = # 3 3 q d k l x V x c u 4 + . . O @ o o O @ = 8 6 - a A A V x l r r u u l 1 :.,.8.&XV.h.Q.#X6.O.VXVX",
"n.O.rX3.3.r.lXrXLXxXqXW . + t p 2 r z l r r k k k c u 4 + . O @ O O # # ; 6 6 6 , Q ^ x l V f r u V t e N ,.0.8.6.s.h.a.6.O.:XKX",
"n.6.1.K.KXFXF.XXyXgXzXpX;.2 % 3 + 9 z V f 9 6 9 q c V r @ . . @ @ % + 3 - & e J 4.PXpXQ f z d k u w u z 1 H K.d.'.Z.C.s.6.z.VXHX",
"Q.a.O.H.vXq.T.T.m.m.yXsXqX2 3 + + X 7 d W V ; 8 8 2 V x = + + . # # 1 + B *.rX).kXgXS.lX{ f f z u y c 9 0 s U.XXZ.C.C.%Xl.v.AXHX",
"+Xh.+.ZXW.T.k.^.Y.oXq.tX~ 8 : l ^ W ^ f J J 6 * 2 q q r q =   * *   f =.rXOXF.(.AX|.gXzX0XU g 0 k i u r z 7 S.GXI.Z.Z.+XI. XHXHX",
"c.$X5X5X7.m.^.R./.%.I.tXG < x wXUXUX4.d z S J + & 9 & q u =   & * M 9X-.q.9.x.DXZX X1.rX*.L.U s d i 4 4 V 7 ;.GXI.P.C.V.C.jXJXAX",
"I.%XbXl.n.#.f.^.R.~. XS.a 8 8XpX8X^ e 7 0 J ^ - & 6 9 A q 2 + . 1 PXy.t.>.O.NXn.O.8.jXfX2.*.J.H 7 q u 4 r 2 ~ 9XJ.I.%XZ.].AXHXfX",
"2X&X'.l.z.H.6.g.Q.E.].L.h ;.xXiX^ & t f 0 8X .& - d A W r 9 = . { iXy.J..XAX`.<.c.P.&XAX9.<.G.).N - k u 5 2 Z qXU.G.Z.'.mXKXvXF.",
">X$X>X_.>.J.G.6.%.N.9.kX[ ;.uX-.+ e e 1 ;.xXC f 6 z G z k r * & 7 H y.gXKXF.9._.v.B.cXBXhXz.X..X5.a 2 r u 5 t 8XL.A.B.bXSXMX}.q.",
"=Xb.1X{.A.2.I.].#X1XAXVX0XeX).-.H e J 4.iX8Xf 7 J f A 2 9 r 8 2 9 0 e e.XXF.W.Q.~.j.#XW.cXdX8.0.tX[ 7 4 i t 3 | 9X.X,XSXZX_.x.(.",
";XmXmX`.*X*XvXBXmX'.v.|.gXK.(.).eXu.tX8XxX8X1 Z 7Xl J 8 ; k c ; y w J 9XL.H.b.^.Y.^.1X-Xb. XvX|.r.9XJ 3 5 u 3 J uXGXnXBX2Xc.H.H.",
"H.v.;X].dXBX].P.B.c.8.<. XfXz.(.F.).L.PX8X8X1 S wXl E A = w v 4 5 # ~ iX9XK.n.W.E.Y.oX-Xn.NXAXKXLXLX9X7 q 4 9 9 9XgX9.<X$Xc.I.'.",
"G.v.jX:Xl.n.Z.c.B.$Xv.v.v.:X9.n.g.n.vXaX=.u.7 9 7Xu A ! ! > E i @ t 2 M =.rXJ.I.W.b.mX6XNX_.<.H.9.|.GX| & k 8 & U eX|.NX!.!.C.C.",
"`._.{.].B.$XbXMXcX2X'.$X>XMX_._.5XCXAXt.L.iX6 c / W 4 A 8Xq x A 5   t V 7 I A..XH.9.<XKXn.] {.v.l.O.K.9XV - J qXr.yX`.<XE.Q.N.%X",
"v.&Xv._.bX2X>X3X>X>X2X>XcX;X,XcX5XW.<XdXGXpXa 8 ! ! . V xX~ 6 A 5 5 = r C s g r.L.|.VXBX8.<.a._.g.9.D.L.3.+ | UXeXAXZX=Xh.!.V.V.",
"_.,Xc.B.>XB.h.b.b.b.[._.$X_.{.n.g.%.g.NXFXrXZ , ! A e =.lX4.1 A i % . w x b f g r.rXKXfX9.].a.p.o.b. Xt.tXs -.PXe.OXMXW.E.Q.Q.M.",
"NX{.l.B.b.b.#X!.B.B.c.b.W.2X{.@.l.#Xf.~.:XrX[ , W  .=.r.y.eXs C u O > @ w x x 0 g 9XLXaX Xv.B.!.+.+.}.D.eX` Y GXJ.F.{.j.~.M.Q.~.",
"<Xb.g.[.W.N.!.h.N.~.[.'.g._.1Xc.'.b.oX6Xm.|.S., [ qXL.,.,.L.N Z c $ @ . y c c x , f lXGXH.n.E.M.%.$.n.D.L.L.I rXt.fX6X~.j.E.Q.N.",
"_.l.g.b.~.E.N.#X!.p.c.a.a.#.2X&XP.l.-X-Xm.v.aX} 3.L.q.q.w.0.U a A # = = > w c k x 1 7 ,.`.W.Q.M.k.f.+.`.GXGX` GXvXdXa.E.M.~.N.E.",
"7.f.$.W.N.N.h.$.+.$.%.@.a.b.$XnXU.d.>X/.j.W.G.A.XXH._.9.(.K.| 0 V # + 9 = q k z f L 3.e.:XN.R.R.k.Q.$XBXK.L.0.yX.X`.c.B.!.E.W.N.",
"E.b.$.E.f.+.&.i.j.h.N.N.W.7.B.BXA.U.>XE./.%.+.d.v.n.^.^.x.D.u.a l 3 + * 7 7 1 e ;.PXIXe.`.~.R.i.o.bXMX9.X.J.aXJ.J.H.n.!.Q.h.p.p.",
"b.~.g.g.p.f.j.E.!.N.!.!.'.6.'.AXK.fX;Xj.R.o.g.!.[.Q.k.^.m.J.0Xh t V 3 1 T 3.r.9XeXeXuXt.`.W.M.R.N.bX<.O.VXK.1.fX>.O.O.+.6.$.6.c.",
"b.W.h.p.j.~.~.E.N.N.B.N.'.B.1XvXVXGX Xb.%.o.-X!.j.k.&.f.g.H.aXK 6 u 1 { gXLXGXyXeXe.FX.Xz.b.!.k.$X+.8.AXfXD.).fXG.8.6.6.6.6.a.!.",
"~.h.p.g.N.f.i.s.$.p.h.a.b.v.$XB.I.dX8.7.@.$.!.p.p.k.k.%.7.<.0.*.t l e 9Xt.1. XvXVX|.VXHXfX;XmXmXO.<.:XdXD.D.J.VX:XH.I.'.C.c.a.B.",
"#Xg.j.f.p.i.p.p.p.a.a.a.a.6.{.'.7.cX7.#.6.a.$.p.N.!.+Xj.T.7.O.0.f 9 M uXD.8.[.b.1XBXfXF.`.fXdX;X+.<.dX X`.J.q.vX;Xl.B.'.'.N.7.N.",
"-Xg.W.h.h.N.+XN.!.!.N.B.B.l.cXcX-XDX<X_.P.v.@.c.V.N.!.b.-X[.m.XXS * U uXz.7.Q.k.W.CX<X:XdX XdXJXd._.ZXdX(.(.F.dXcXn.W.W.N.h.$.N.",
"CX6.c.Q.!.E.!.N.N.!.B.!.'.n.2X[.T.~.mX>XP.v.6.].I.B.'.b.W.j.T.XX4.  H y.F.#.i.~.~.JXCX1X{.`.`.>.,XnXdXVXq.(.m.:X<Xb.Q.Q.V.h.$.Q.",
"MX$XB.[.N.!.h.Q.Q.!.N.N.c.'.=X#.j.E.E.6XcXv.d.P.v.P.B.c.[.b.T.(.9Xd 1 t.w.X.+.%.mXDX-XT.T.l.7.X.>.H.fXfX|.z._.'.#XM.V.+Xh.+.s.#X",
"JX;Xg.W.W.B.h.!.!.N.N.~.!.[.=X7.&.Q.b.b.n.$XdX:X:XH.`.}.b.B.{.d.tXU X I yX>.m.m.JX=Xf.j.E.%.7.a.<.P. XvXBX:Xv.c.N.+X+Xh.+.+.p.B.",
"cXNX'.n.W.[.B.N.N.!.!.c.c.=X<Xl.%.N.W.#Xa.a.v.P.].hXBX2XB.W._.G.L.9X7 s r.r.,.VXSXg.+.o.6.N.N.+.i.!.N.>XJXBX&X$XC.h.+.$.c.a.O.o.",
"{.SXcXn.l.B.'.!.'.C.c.c.$XZXMXl.+.h.b.b.#.'.;X].B.MXSXSXZXDX>Xv.t.).-.X ~ tXlXLXBX<.a.a.Z.C.+X+.M.@Xk.N.<X;X].].>X$Xc.h.B.l.6.b.",
"H.BXAX,X{.v.v.'.c.a.'.hXZXAXZXBX8.6.l.{.>XCXMX2X$X>XMXMXc.].BXJXOX(.uXZ :  .xXzX|.O.].%X+XV.+Xi.R.@XR.E._.{. XH.hXJXSXnXbX;Xx.q.",
"d.:XAX,XhXbX>X>XhXcXBXnX&XB.v.&X&XP.,XMXMX=XW.[.'.g.b.2X,XP.P.dXJXSXLXlXN , | IXe.>.n.b.V.+X+Xi.M.R.R.E.n.].fX|.,X{.d.l.,XBXZXSX",
"H.].jXv.&XSXZXMX2X=X[.c.B.$XB.v. XvXAXB.c.c.N.N.N.[.!.$XMX].I.AX6XoX XXXL.s s 5.L.0.#.f.Q.M.V.h.f.W.b.v.x.q.J..X`.8.<.c.'.P._.:X",
"`.9.dX{.<XMX$X'.B.c.!.B.!.'.c.P.G.|.hX8.B.W.Q.N.E.N.N.B.jXnXBXAXc.b.b.x.|.rXN 1 ,.XXq.X.o.7.B.9.X.D.K.XXrXt.K.AXz.9.c.B.B.B.n.l.",
"v._.}.cXMX!.c.W.Q.N.N.E.N.Q.W.c.H.hXdX<.'.N.E.N.E.E.B.B.'.&XjXBXnX>Xb.W.T.q.HXT 1 -.OX).t.1.t.,.S.=.{ U Y Y FXHX(.6.B.g.c.[.$X2X",
"l._.;X<X[.c.Q.E.E.N.E.Q.E.!.Q.c. XvX].O.c.!.Q.E.Q.!.!.'.I.P.P.P.%XBXMXb.}.}.yXHX-.e Y y.uXy.{ { G V z d f M T e.1.w.W.=X3X4X5X4X",
"9. X:X=XW.b.!.W.N.N.Q.Q.E.Q.Q.b.].jXP.+.#.W.N.Q.M.N.N.B.B.P.P.P.P.d.AXjX8.q.}.FXyXeXM V 4.J f 7 c c j c A V 1 -.yX] n.mX4X+XV.Z.",
"}.<XNXNX{.b.W.j.E.N.Q.Q.M.N.N.h.v.dX:Xc.6.h.h.N.+XQ.V.V.B.B.B.P.P.G.*XHXjX X}.dXFX).pX;.0 & * d 4 y y y u t 1 u.gXJ.ZX5XV.V.+X+X",
"(.x.;XMX{.l.'.B.Q.N.Q.V.N.V.V.c.n.dXCX;Xb.a.h.h.N.N.V.!.!.B.N.B.B.$Xd.fXKXHX:XVXfXfXPXUXlXU s . - ; 4 5 = = J xXy.IX.X8.[.g.Q.M.",
"H.(.l. XBX$Xl.[.Q.N.V.Q.B.!.Q.c.n.}.cX<X#XN.V.N.h.s.h.N.N.N.W.[.Q.g.v.I.I.VXfXH.`.G.fXVXrXe.e.=.s 1 & 2 u > r A | 0Xe.1.$XN.j.E.",
".XvX XfXKXcXc.B.C.B.B.!.!.!.N.6.m.m.oXcX#X!.C.C.+XC.V.M.p.$.%.k.Y.^.-Xn.B.hXU.d.P.c.mX-XO.X.D.XXeX-.M * * = 5 ; X f e.>.O.b.T.^.",
"8.0.vXJX:X;XnXB.C.B.B.!.C.C.s.O.n.T.oXDX'.!.Z.V.C.C.+XQ.s.@.o.o.&.&.k.Y._.&X*XI.I.MX6X%.o.#.I.D.t.eXiX;.S 5 = 4 0 - { e.G.m.7.k."
};
