/* XPM */
static char *_d3d291ab226430280c2999a22baf3bb0k5OIVHJR02dhO2c[] = {
/* columns rows colors chars-per-pixel */
"64 64 256 2 ",
"   c #0C5B00",
".  c #065C00",
"X  c #155D00",
"o  c #2C5D00",
"O  c #0C6400",
"+  c #0C6C04",
"@  c #066704",
"#  c #146501",
"$  c #1C6400",
"%  c #136C02",
"&  c #1B6B01",
"*  c #186C0A",
"=  c #0D7408",
"-  c #157303",
";  c #1C7203",
":  c #1C7B02",
">  c #13730B",
",  c #1D730B",
"<  c #187B0A",
"1  c #187913",
"2  c #156F15",
"3  c #246501",
"4  c #236C00",
"5  c #2B6D01",
"6  c #276805",
"7  c #366B03",
"8  c #247302",
"9  c #2B7401",
"0  c #247A02",
"q  c #2C7B03",
"w  c #23750B",
"e  c #2B740B",
"r  c #247A0B",
"t  c #2C7C0B",
"y  c #337402",
"u  c #3C7401",
"i  c #347B02",
"p  c #3A7C03",
"a  c #33760B",
"s  c #347C0B",
"d  c #3B7D0B",
"f  c #3A740A",
"g  c #257C12",
"h  c #277914",
"j  c #347D12",
"k  c #3B7D12",
"l  c #347817",
"z  c #466A03",
"x  c #437401",
"c  c #427B02",
"v  c #4B7D02",
"b  c #437C0B",
"n  c #4B7909",
"m  c #547A05",
"M  c #477A14",
"N  c #567C14",
"B  c #4E6E19",
"V  c #647C06",
"C  c #717E0A",
"Z  c #4F7C20",
"A  c #1D8214",
"S  c #25830C",
"D  c #2C830C",
"F  c #298405",
"G  c #348204",
"H  c #3C8204",
"J  c #34830C",
"K  c #3C830C",
"L  c #338A0B",
"P  c #3D8A0C",
"I  c #3B8905",
"U  c #2C8213",
"Y  c #288518",
"T  c #348414",
"R  c #3C8413",
"E  c #348A13",
"W  c #3C8B14",
"Q  c #3C8C1A",
"!  c #36861A",
"~  c #3A9518",
"^  c #2F950F",
"/  c #358A21",
"(  c #358F26",
")  c #3CA718",
"_  c #448304",
"`  c #4B8303",
"'  c #428A06",
"]  c #4B8C04",
"[  c #43840B",
"{  c #4B840B",
"}  c #448A0C",
"|  c #4B8A0D",
" . c #548204",
".. c #54850B",
"X. c #5C850B",
"o. c #538B0C",
"O. c #5A8A0D",
"+. c #598805",
"@. c #49950B",
"#. c #5C910D",
"$. c #56950B",
"%. c #438412",
"&. c #4A8514",
"*. c #448B13",
"=. c #4A8C12",
"-. c #448C1A",
";. c #4B8D1A",
":. c #48851B",
">. c #548612",
",. c #538C13",
"<. c #5B8C13",
"1. c #548B1A",
"2. c #5B8D1A",
"3. c #5A8514",
"4. c #449314",
"5. c #4C9214",
"6. c #43931B",
"7. c #4C931B",
"8. c #4A9A17",
"9. c #539314",
"0. c #5C9314",
"q. c #5B9A15",
"w. c #54941A",
"e. c #5B941A",
"r. c #549A1C",
"t. c #5C9B1C",
"y. c #519816",
"u. c #668809",
"i. c #748A0C",
"p. c #67960D",
"a. c #638C14",
"s. c #6A8D14",
"d. c #638C1B",
"f. c #698818",
"g. c #778A19",
"h. c #629315",
"j. c #6B9314",
"k. c #63941B",
"l. c #6C941C",
"z. c #639C1B",
"x. c #6D9B1D",
"c. c #659B13",
"v. c #73941B",
"b. c #769718",
"n. c #75970E",
"m. c #48A417",
"M. c #59A217",
"N. c #59A10D",
"B. c #68A318",
"V. c #78A41B",
"C. c #61A10F",
"Z. c #478C21",
"A. c #578822",
"S. c #489424",
"D. c #599824",
"F. c #648922",
"G. c #778E24",
"H. c #699925",
"J. c #749A23",
"K. c #799927",
"L. c #779734",
"P. c #6A9A32",
"I. c #5AA423",
"U. c #50A232",
"Y. c #67A426",
"T. c #77A427",
"R. c #67AA38",
"E. c #79A836",
"W. c #78B33B",
"Q. c #79B344",
"!. c #77AE48",
"~. c #7EC658",
"^. c #948D19",
"/. c #88961A",
"(. c #96941B",
"). c #868A14",
"_. c #A5981F",
"`. c #87A31E",
"'. c #97A01F",
"]. c #879927",
"[. c #979A2A",
"{. c #8A9B34",
"}. c #95952D",
"|. c #A59829",
" X c #B39C31",
".X c #85A528",
"XX c #97A529",
"oX c #87A736",
"OX c #96A736",
"+X c #86B437",
"@X c #98B53A",
"#X c #8DB32C",
"$X c #A6A42A",
"%X c #A7A637",
"&X c #B7A838",
"*X c #A7B338",
"=X c #BCB83D",
"-X c #C6A73A",
";X c #C7AE39",
":X c #88B747",
">X c #99B847",
",X c #98B757",
"<X c #8DB14B",
"1X c #B7AC43",
"2X c #A9B747",
"3X c #BAB647",
"4X c #A8AF48",
"5X c #9BBF63",
"6X c #C5AC44",
"7X c #D6AD46",
"8X c #C7B647",
"9X c #D6B64B",
"0X c #DCBC54",
"qX c #C8BB54",
"wX c #E6B54B",
"eX c #E8BA56",
"rX c #F8BB58",
"tX c #E1AF4C",
"yX c #F0BD61",
"uX c #98C658",
"iX c #8FC756",
"pX c #A8C757",
"aX c #B5C657",
"sX c #AEC84F",
"dX c #98D46E",
"fX c #A9D96A",
"gX c #B8D969",
"hX c #B2D070",
"jX c #BBE875",
"kX c #ADE372",
"lX c #94E27F",
"zX c #C6C757",
"xX c #DCC65B",
"cX c #CBC14E",
"vX c #E8C458",
"bX c #F3C75E",
"nX c #D0D76F",
"mX c #C7E776",
"MX c #D2EC7C",
"NX c #E8E87C",
"BX c #FACF67",
"VX c #BBEC85",
"CX c #B2F28D",
"ZX c #AEE283",
"AX c #C8EA87",
"SX c #DAE887",
"DX c #C9F78B",
"FX c #D6F78A",
"GX c #CBFA93",
"HX c #D7FC99",
"JX c #CFEE90",
"KX c #E4FE98",
"LX c #E5F085",
"PX c #D4FFA3",
"IX c #E9FFA1",
"UX c #C8DD80",
/* pixels */
"] ] +.v.b.j.z.5.I G [ y &.*.E S.=.p 5 q E E L E 4.r.t.t.q.c.B.V.+X+X$.@.@.M.@.$. .u.i.i.@X+.u _ v .Xb.v v O.z.[ &.d i ;.7.} 9.| ",
"] ] u.K..XJ.z._ H i K p ;.*.E ~ K K i G E ~ E E 6.8.M.M.B.B.B.B.b.`.B.$.N.C.C.+.u.i.)./.*Xn. .`  .x.V.V.T.c.9.5.[ s a -.=.K 5.} ",
"] o.X.v.K.l.O.i 9 4 y y p 4 D D 0 E Q E E ~ S : ^ ~ m.m.M.N.p.n.).$X*Xn.V.V.#XXX_._. X;X8X*X.XT.a.j.T.+XT.o.y K %.s a *.%.H =.} ",
"$.#.X.v.v.u.v p =.K [ &.d & Q ~ Y E S - ; U S S ^ ^ ) m.N.q.c./.^.&XcXXX/./.$X&X;X;X7X9X&X*X@X+Xx.h.T.c.o._ 4 9 9 9 8 q 9 9 K G ",
"0.h.j.oXoXf.m { &.y y y 5   t S A < + % r U S : ^ ^ ) m.N.c.V.XX&X;X=X=X$X$X_.-XvXwX7X7X^.[.T.k.h.O.z.$.] ' i K j T ! t e W 6.W ",
"` k.K.>XpXK.3.>.D.d y y d 9 t : < = + 1 ! g ; - ^ ^ ) m.N.c.`.*XsX*X(.*X;X8X;X9XbX9X-X&X).{.K.<.<.` 0.z.r.=.K W 8 w h # # t t 9 ",
"x h.J.oX>XK.3.3.1.d a 5 R j 8 ; Y 1 % % & & w E F ^ 4.M.B.n.`.#X#Xp.V /.;X0XwXvXvX8X8XaX@X>XuX:Xe.| 9.Y.r.I K t t , h % # w 8 8 ",
"x k.d.l.oXL.F.3.M f f $ e 8 # & O > 1 w w w r ! 0 F } M.B.V.`.#Xq.] u.'.vXvXeXvXvXxXNXLXmXmXFXFXk.e.9.t.=.G W 0 ! * , & # & & 0 ",
"x h.d.E.L.G.N F.N 7 5 X & e T w O * % Y / , ; U E 8.5.| c.B.b.B.@.$.p.).&XwXwXeXbXxXNXnXnXSXnXSXuXp =.I.G J q 8 w w @ * g % & & ",
"x v <.k.d.L.G.F.B 6 3 4 t w T ! # O O Y Y < r t 6.*.y.9.Y.Y.] ] ' H p./.(.-XwXwXvX0X1X[.%XnXLXFXH.y i i G 7.E t O * O % , r U ; ",
"7 <.>.<.jXAX<X<X,X!.l 4 j 4 4   g - + < - - S 0 E 9 5.5.@.y.I @.I.] T..XC ). X X7XvX-X X4X4XaXoXH.| p 5 i K & ; ; , , , ; r D ; ",
"..c { e.jXIXmXAXHXVXS.& w w j $ & & % r S D Q W R 9 } P G L L 4.I.H q.T.u.i.[._.-X0X&XqXnXnXpXN D.;.| p G 9 O w r U g g r ; 0 J ",
"z.{ ,.c E.<X,XKXjXAX!.S.w & j k & t q s %.d d %.;.%.i P L L ~ F W 9 i | #.x.].[.3X&X|.1XLXKXpX<.e.&.=.} i 9 8 9 # U r & t 9 9 I.",
"0.Y.t.p >.N F.hXKXdXe $ ; t j a K ;.b c n z z n n &.5 i J D U.E q K 7.} _ +.u.`.XX[./.[.aXfXT.,.w.=.[ H i K J & # Q ! & 9 q q I.",
"o.] t.t.b P.<XL.P.Z l / t w 5 y [ c m G.g.g.{.G.N N 5 9 q 8 -.S.& K D.=.u O.b..Xn./.n.u.s.l.O.z.` c u p [ 7.7.J t Q S.q 4 G G } ",
"` z.9.5.D.fXDXhXM f 6 t & T R ;.c 7 K.zX3X1XqX}.].N u f Q t $ 8 T t %.p c T.T.a.j..Xb.u.l.l.+...,.[ y H 5.%.*.D.R 8 R K 4 i H I ",
"0.0.t.9.Y.kXGXkX:.s 8 & T 8 s w.O.j.sXzX8X6XeX8X1X].N f R # % , h ! X 4 d D.e.0.h.T.+XT.x.J.a.a.=.H i 5 [ ;.7.d -.-.a 5 [ [ p 5.",
"o.o.e.9.7.R.R.S.8 T ! 4 s s -.;.0.s.XX&X8X7XeX0X Xg.3.&.Z.; , Y , ! / j 4 K d w.` H.J.+.a.J.J...| _ K i =.;.;.d f ;.%.y i y 9 p ",
"c ` 9.w.=.p 9 4 $ T Z.8 t t R K { j.].[.qXxX9X&X[.g.d.&.R w g Y ! e ! s d R.,.9.O.H.x.a.+X>XpXJ.o.[ [ p [ [ R s $ a d y 9 i p i ",
"x ` 9.t.y.H 9 s 8 q ! T T 8 i p { +XOX[.1X6X X^.].g.H.b f t t ; & X 8 $ $ [ [ { H.o.v J.mXMXFXoX<.| _ u y y f s 5 4 9 9 9 K =.H ",
"` #.t.t.r.=.K R R q T W -.s K [ Q.mXMX2X%X4X1XzX{.f.k.&.;.R t 4 R -.-.d 5 y | ` c ` 0.+XjXmXKXgXk.<.{ c 5 9 i R W 9 9 i y H } p ",
"#.z.Y.q.5.7.=.K -.K Q R *.K *.K :XDXDX>X{.nXLXMXgXJ.d.1.w.&.d R D.;.K s [ [ | 5 0.o...k.uXjXMX+X2.2.,.&.y 9 9 K i 8 i p y y _ { ",
"q.z.z.9.[ 5.r.P *.*.7.K s i %.i 7.Q.W.d.f.gXFXmXFXE.k.{ &.=.&.;.%.%.;.p =.| ' c 9.| <.o.<.E.+X2.,.1.&.;.s 9 8 J 4 9 i p y u ..<.",
"B.q.q.| i } r.=.P K 7.*.G q *.*.-.d b A.N :XjXFXjXT.H._ { e.,.b &.[ D.y =.9.H ' 9.[ w.9.c ..2.,.w.w.=.7.i 9 9 K R ;.;.p u v ..3.",
"B.$.q._ p H D.5.i 8 4 9 D.H i *.K -.:.;.1.n H.iXW.E.w.H.e.e.{ c D.[ y p y 5 K [ Y.=.=.7.y u D.;.;.6.*.s J 9 J i D.D.7 u x m X.s.",
"o.o.| _ | H H H =.5.K 4 q } 8.K *.S.S.&.[ &.{ =.D.D.| e.,.,.,.&.{ [ d d H 9 i 9 7.K K W -.-.K 9 R E Q q J 9 K y D.Q.n ..3.a.K.f.",
"q.z.o.$.q.| p 5.r.=.} } i K =.[ K K K %.K K =.5.=.5.[ 9.| &.,.,._ =.[ p *.J K 9 0 J 6.t q t & Q D t ! 0 J 9 K [ &.P.2.H.E.oXK.u.",
"q.t.] 9.9.9.[ y.y.H p r.H q 9 } } K *.7.K i =.r.=.5.} =.[ H [ [ =.;.p 9 6.Q 6.T 0 r E % O , % ! Q D E D J s ;.H.1.n H.K.oX@XX.a.",
"| | | t.=.t.w.=.} r.K p i i 4 K y } I.r.K P 5.} =.5.} } } i G 9 } [ 5 4 6.Q Q E < + Y > @ > + 1 S ; r T q K b H.T.3.E.H.l.T. .h.",
"9.| 9.t.| t.Y.9.H r.[ i K [ i } i i ' 5.4.4.8.5.5.5.=.} 4.K P q i s 4 s Q Q E < A = A 1 @ + + > : % 8 a %.P.1.2.d.J.E.l.O.` 0.| ",
"| _ | | | _ | | p H [ =.D.=.%.5.9.H i } y.G G 8.5.5.=.} 4.P 4.L i R q W t Q Y + ( 1 @ @ 1 1 = > g w ! a Q.kXuXH.3.J.T.H.<.c 9.p ",
"p H | 5.Y.p 9 p [ i =.5.r.=.y.[ _ ' H } y.} G } =.=.} p P G 4.J J 7.i K # U S + + g > > A @ @ / g & R 3 uXKXAXL.oXf.K.k.k.| _ p ",
"4 ' 5.| Y.=.3 [ [ i y.} | ,.e._ | i } G } } i y.' } } [ i i d i i 5.{ u s 4 # g e 6 l * > - t t 8 e 3 o A.,XUXSXSX5Xf.G.K...o.p ",
"9 9 5.5.=.=.d K 6.8 s i } 9.H.9.5 =.;.5.5.} ' p t.' H [ =.7.-.i [ ` <.k.<.[ d e M M e l T W K 9 q e l 3 7 B hXSXSXnX{.oXpXJ.x 7 ",
"0 G 4.4.*.W t T Q % - ; q q y 5 b iXVXE.x e.e.e.H.{ _ { =.5.=.[ ..u.v..X.XJ.1.&.iX,X:.R J -.[ p 4 j k A.E.L.pXIXSXnX{.G.OXJ. .v ",
"0 E 6.Q Q ! r g < @ - - ; 0 9 9 !.HXAXuXn x uXkXE.k.,.e.w.9.r.t.f.g.g.2XzX].V pXHXDXR.%.s i | | a R k iXDXAX{.,XpX>XK.K.J.l.l.m ",
"J 9 W S.w r ( > = = = = > Y T R Z hXUXL.7 ,XFXKX:XH.O.0.q.t.M.z.G.OX|.1XcX&X[.aXmXjXW.[ [ y | { -.4 ;.fXVXDXF.z K.K.K.{.J.v.v.m ",
"R i a j & # 1 > > > > > > Y , 6 Z B z 5XjXAXAXhXL.d.>.o._ ' 5.e.gXnXLXnXvXBXxX$X@X+Xq.H ,.c { c i -.%.y :XQ.7 3.N J.f.f.J.b.s.v.",
"b &.y y a X   > @ + > 1 g / w 6 o 7 <XHXJXJX<XE.F.F.F.,.p i } w.FXnXNXLXvX9X-X^.b.0.] _ ` v { | w.9 s 3 X 3 1.u x n ..X.J.b.u.u.",
"b u y :.a X w % @ + + , O & X e k :.!.VXVXGX<Xz A.1.1.[ y y s y hXSXSXnXqX9X-X^.i.$.$.q.` O.| D.p w.4 y -.K 7.[ ,.7 x .. .j.s.z ",
"p [ b 5 3 4 8 ; : g < O . # e e -.R -.iXkXiXM f M k a a 4 $ T k A.5XkXoX).&X&X(.p.$.@.o...<.,.[ d p y 9 7.*.W 7.i y p `  .X.X.m ",
"y p _ d s y q q O ; : ; ; t R R K P i -.;.%.9 %.5 a a a 6 # w w l a M F.{.%X$X$Xn.+.` o.k.Y.H.| [ y 3 $ R K Q 6.4.9 5 _ <.a.X.m ",
"I ' @.r.=.i 9 9 ; 0 0 0 9 q s 9 P 8.P J G J q t $ ! ! w & w h # w & t %.a.g.g.].n.j.a.h.J.T.w.y y 5 y s -.J W J J J K =.z.0.....",
"I I 5.I.q._ H | } } } H K [ d p i ' I G G J 0   & U g & * * * w w w t y ` j.i.i.i.g.v.f.d.3.u 3 y 3 y 9 & # J L 0 6.7.[ ,.e.<...",
"@.@.B.Y.x.o. .O.v ` ..<.k.k.k.k...| [ i 9 q J r r % # , ,   . h U w q d ` X.u.g.).[.}.g.f.X.v c &.9 R j 8 & Q Q D Q q 4 p w.,.{ ",
"z.B.T.T.T.v.s.u.V V u.v.K.].].].oXl.<.b d s W U r ; ; * ; & # & T t K _ v  .u./.%X6X1X%XOXs.v v b 3 5 e 8 ; t ; t 0 & & y K [ ,.",
"O.a.j.v.XX4X1X%X%X|.[.[.%X%X%X%X4XG.f.m x y R T r r Y ; - ! t & Q d u 7 ` T././.-X7X7X6X*Xs.m ..P.l 9 4 8 w U w w & 8 9 9 i K =.",
"+.u.u.i.[.zXxXzXqX&X|.|.|. X&X8XqX4XOXd.x u R.~.Q % ; r t U t T 7.;...x x +.i./.7XwX9X8X2X.XT.uXD.%.R s j ; , % ! r ; & 4 K =.i ",
"+.p.j.b.*XzX2X].*XOX|.&X|. X7XbXvXxX2Xv.v E.DXGXdX4 & T t 4 6.6.-.%.u 7 u ` a.i.|.-X8X=X@Xp.c.0.y [ d $ e h # * + + , r t R } H ",
"c.c.B.#XaXzX2XK.K.].OX%X%X9XbXbXrXwX*X.Xh.T.fXVXQ.s 9 R -.q E ~ Q %.b u c `  .V (.&X8X^.i.#.#.] p 5 K j w * h 2 @ @ 1 g 0 q } 9.",
"p.p.c.T.OXOX.XK.v.].OX[.1X9XeXrXrXwX&X].v.k.E.:X&.d f J 6.q : L W J u u c `  .u.(. XcX/.u.p.#.` 9.H -.R & # / * @ @ % 1 ; 8 H q.",
"p.c.c.x.v.K.J.J.J.J.].].%X|.-XwXrXrX-X^.g.K.K.2.b %.k R W 0 - F E J p b | o.a.s./.[.zXsXT.O.O.v p G s 8 h # 2 + @ @ + ; 9 q } 9.",
"p.c.z.z.K.oXJ.<.2.l.].].[.^. XtXrXBXtX&X%X2X+XD.D.&.d R T S : : F G [ e.H.x.h.s.i./.2XsXoXv ..u i q T ! ! # # + @ O - r q P 9.9.",
"#.c.q.0.a.J.H.,.,.H.oXOXOX[.6XeXrXrXrXeXqX2XE.D.1.b f k 9 D S ; 0 i [ <.k.x.l.s.m g.T.T.k.u >.u 9 9 -.t   l ( h O % r t s } q.q.",
"h.z.Y.9...>.e.D.w.H.oX>XOXOX1X0XeXeXrXyX1X].H.1.M P.!.P.a t 0 0 G H c x  .l.x.l. ...<._ [ b 1.&.K R S.j k ZXCXZXh w w t K | q.q.",
"z.e.r.t.e.,.| =.r.[ 2.>XoXoX4XxX0X0XeXeX|.C H.w.2.jXHXfX;.i 9 *.[ o...m X.l.l.O.<.p _ 9 %.;.;.D.S.s 5 R !.PXlXGXU.! 9 s =.9.0.h.",
"k.t.t.r.e.,.} K K 5.>.J.J.J.OX1X3X&X9X9X%Xg.Y.w.iXFXgXKXE.;.b { ..a.X.m m v.l...c } G # 9 R R ;.R %.Z.y Z.ZXPXCX-.a 9 K w.t.k.h.",
"H.t.y.5.{ _ H i q p ` k.k.a.].OX].%X&X}.[.K.e.9.E.FXFXmXH.d.F.f.g.v.b.v.s.s.a.<.H G q ; T S.Q Z.a %.%.f k P.!.D.5 4 9 &.w.e.<.<.",
"e.0.5.=.{ { H G G i ` >.,.{ ..v.s.OX{.C s.l.<.:XkXgX>Xg.>XFXaX].g.XXOXb.u.X...c G q F 0 8 q t Z.4 a 5 f f 6 f 5 3 5 y [ [ { <.e.",
"` o.5.5.,.,.} } r.| e.,.| 9.` <.<.x.J.s.<.k.<.fXFXmXX.v.mXMXNX}.$X*X@X.Xj.a.O.| G F L q 3 4 4 t a y 3 y f 6 u %.d K %.=.[ _ &.e.",
"v o.w.w.<.{ [ } =.=.e.c i I H { <.c 9.t.e.Y.0.E.fX+Xu.K.nXNX3X|.8X$X.X#XT.o.` w.4.P %.K b %.9 # Q 9 5 5 y u y ;.=.*.5.5.=.[ [ [ ",
"..<.w.w.<...,.9.[ 9.e.c 8 0 i H ` y 4.8.} I.k.O.` h.h.#X*X3X8XxX&X^.i.B.B.$._ ' 4.P [ u n &.a & s 4 9 4 y [ y K %.K G i i i p p ",
"..<.9.9.h.h.e.e.t.t.<.| I G P 4.[ i L ^ I } k.X.h.` 0.j.XXzX%X;X6X%XV.c.M.M.5.I I I [ x n n y s q 8 i s y H =.} P G 0 ; 0 G K K ",
"....=.w.k.k.<.| t.{ 7 ` 8.^ 8.4.&.9 : ^ m.' O.m v o.#.V./.).|.|.vX=X.XB.N.y.@.5.4.=.,.d.{.H.u i 6.6.*.;.i i r.5.L F q F E 6.6.Q "
};
